<mxfile host="65bd71144e">
    <diagram id="4oUVMv4jxPm_l4O5CDLX" name="Page-1">
        <mxGraphModel dx="2884" dy="801" grid="1" gridSize="10" guides="1" tooltips="1" connect="1" arrows="1" fold="1" page="1" pageScale="1" pageWidth="1100" pageHeight="850" background="#FFFFFF" math="0" shadow="0">
            <root>
                <mxCell id="0"/>
                <mxCell id="1" parent="0"/>
                <mxCell id="105" value="" style="hachureGap=4;html=1;fontFamily=Architects Daughter;fontSource=https%3A%2F%2Ffonts.googleapis.com%2Fcss%3Ffamily%3DArchitects%2BDaughter;fontSize=16;endArrow=none;endFill=0;rounded=0;sketch=1;curveFitting=1;jiggle=2;" parent="1" source="6" target="11" edge="1">
                    <mxGeometry relative="1" as="geometry"/>
                </mxCell>
                <mxCell id="109" style="edgeStyle=none;hachureGap=4;html=1;entryX=0.5;entryY=1;entryDx=0;entryDy=0;fontFamily=Architects Daughter;fontSource=https%3A%2F%2Ffonts.googleapis.com%2Fcss%3Ffamily%3DArchitects%2BDaughter;fontSize=16;endArrow=none;endFill=0;rounded=0;sketch=1;curveFitting=1;jiggle=2;" parent="1" source="6" target="13" edge="1">
                    <mxGeometry relative="1" as="geometry"/>
                </mxCell>
                <mxCell id="110" style="edgeStyle=none;hachureGap=4;html=1;entryX=0.5;entryY=1;entryDx=0;entryDy=0;fontFamily=Architects Daughter;fontSource=https%3A%2F%2Ffonts.googleapis.com%2Fcss%3Ffamily%3DArchitects%2BDaughter;fontSize=16;endArrow=none;endFill=0;rounded=0;sketch=1;curveFitting=1;jiggle=2;" parent="1" source="6" target="111" edge="1">
                    <mxGeometry relative="1" as="geometry">
                        <mxPoint x="370" y="315" as="targetPoint"/>
                    </mxGeometry>
                </mxCell>
                <mxCell id="112" style="edgeStyle=none;hachureGap=4;html=1;entryX=0.5;entryY=1;entryDx=0;entryDy=0;fontFamily=Architects Daughter;fontSource=https%3A%2F%2Ffonts.googleapis.com%2Fcss%3Ffamily%3DArchitects%2BDaughter;fontSize=16;endArrow=none;endFill=0;rounded=0;sketch=1;curveFitting=1;jiggle=2;" parent="1" source="6" target="15" edge="1">
                    <mxGeometry relative="1" as="geometry"/>
                </mxCell>
                <mxCell id="114" style="edgeStyle=none;hachureGap=4;html=1;entryX=0.5;entryY=1;entryDx=0;entryDy=0;fontFamily=Architects Daughter;fontSource=https%3A%2F%2Ffonts.googleapis.com%2Fcss%3Ffamily%3DArchitects%2BDaughter;fontSize=16;endArrow=none;endFill=0;rounded=0;sketch=1;curveFitting=1;jiggle=2;" parent="1" source="6" target="14" edge="1">
                    <mxGeometry relative="1" as="geometry"/>
                </mxCell>
                <mxCell id="115" style="edgeStyle=none;hachureGap=4;html=1;entryX=1;entryY=0.5;entryDx=0;entryDy=0;fontFamily=Architects Daughter;fontSource=https%3A%2F%2Ffonts.googleapis.com%2Fcss%3Ffamily%3DArchitects%2BDaughter;fontSize=16;endArrow=none;endFill=0;rounded=0;sketch=1;curveFitting=1;jiggle=2;" parent="1" source="6" target="17" edge="1">
                    <mxGeometry relative="1" as="geometry"/>
                </mxCell>
                <mxCell id="116" style="edgeStyle=none;hachureGap=4;html=1;entryX=1;entryY=0.5;entryDx=0;entryDy=0;fontFamily=Architects Daughter;fontSource=https%3A%2F%2Ffonts.googleapis.com%2Fcss%3Ffamily%3DArchitects%2BDaughter;fontSize=16;endArrow=none;endFill=0;rounded=0;sketch=1;curveFitting=1;jiggle=2;" parent="1" source="6" target="18" edge="1">
                    <mxGeometry relative="1" as="geometry"/>
                </mxCell>
                <mxCell id="6" value="User" style="whiteSpace=wrap;html=1;align=center;hachureGap=4;fontFamily=Architects Daughter;fontSource=https%3A%2F%2Ffonts.googleapis.com%2Fcss%3Ffamily%3DArchitects%2BDaughter;fontSize=20;rounded=0;sketch=1;curveFitting=1;jiggle=2;" parent="1" vertex="1">
                    <mxGeometry x="550" y="355" width="120" height="50" as="geometry"/>
                </mxCell>
                <mxCell id="7" value="id" style="ellipse;whiteSpace=wrap;html=1;align=center;fontStyle=4;hachureGap=4;fontFamily=Architects Daughter;fontSource=https%3A%2F%2Ffonts.googleapis.com%2Fcss%3Ffamily%3DArchitects%2BDaughter;fontSize=20;rounded=0;sketch=1;curveFitting=1;jiggle=2;" parent="1" vertex="1">
                    <mxGeometry x="650" y="225" width="100" height="40" as="geometry"/>
                </mxCell>
                <mxCell id="107" style="edgeStyle=none;hachureGap=4;html=1;entryX=0.43;entryY=1.025;entryDx=0;entryDy=0;entryPerimeter=0;fontFamily=Architects Daughter;fontSource=https%3A%2F%2Ffonts.googleapis.com%2Fcss%3Ffamily%3DArchitects%2BDaughter;fontSize=16;endArrow=none;endFill=0;exitX=0.5;exitY=0;exitDx=0;exitDy=0;rounded=0;sketch=1;curveFitting=1;jiggle=2;" parent="1" source="11" target="46" edge="1">
                    <mxGeometry relative="1" as="geometry"/>
                </mxCell>
                <mxCell id="108" style="edgeStyle=none;hachureGap=4;html=1;entryX=0.5;entryY=1;entryDx=0;entryDy=0;fontFamily=Architects Daughter;fontSource=https%3A%2F%2Ffonts.googleapis.com%2Fcss%3Ffamily%3DArchitects%2BDaughter;fontSize=16;endArrow=none;endFill=0;exitX=0.5;exitY=0;exitDx=0;exitDy=0;rounded=0;sketch=1;curveFitting=1;jiggle=2;" parent="1" source="11" target="47" edge="1">
                    <mxGeometry relative="1" as="geometry"/>
                </mxCell>
                <mxCell id="11" value="name" style="ellipse;whiteSpace=wrap;html=1;align=center;hachureGap=4;fontFamily=Architects Daughter;fontSource=https%3A%2F%2Ffonts.googleapis.com%2Fcss%3Ffamily%3DArchitects%2BDaughter;fontSize=20;rounded=0;sketch=1;curveFitting=1;jiggle=2;" parent="1" vertex="1">
                    <mxGeometry x="560" y="270" width="100" height="40" as="geometry"/>
                </mxCell>
                <mxCell id="13" value="email" style="ellipse;whiteSpace=wrap;html=1;align=center;hachureGap=4;fontFamily=Architects Daughter;fontSource=https%3A%2F%2Ffonts.googleapis.com%2Fcss%3Ffamily%3DArchitects%2BDaughter;fontSize=20;rounded=0;sketch=1;curveFitting=1;jiggle=2;" parent="1" vertex="1">
                    <mxGeometry x="460" y="240" width="100" height="40" as="geometry"/>
                </mxCell>
                <mxCell id="14" value="password" style="ellipse;whiteSpace=wrap;html=1;align=center;hachureGap=4;fontFamily=Architects Daughter;fontSource=https%3A%2F%2Ffonts.googleapis.com%2Fcss%3Ffamily%3DArchitects%2BDaughter;fontSize=20;rounded=0;sketch=1;curveFitting=1;jiggle=2;" parent="1" vertex="1">
                    <mxGeometry x="750" y="185" width="100" height="40" as="geometry"/>
                </mxCell>
                <mxCell id="15" value="&lt;font style=&quot;font-size: 12px;&quot;&gt;profilePicture&lt;/font&gt;" style="ellipse;whiteSpace=wrap;html=1;align=center;hachureGap=4;fontFamily=Architects Daughter;fontSource=https%3A%2F%2Ffonts.googleapis.com%2Fcss%3Ffamily%3DArchitects%2BDaughter;fontSize=20;rounded=0;sketch=1;curveFitting=1;jiggle=2;" parent="1" vertex="1">
                    <mxGeometry x="360" y="200" width="100" height="40" as="geometry"/>
                </mxCell>
                <mxCell id="17" value="&lt;font style=&quot;font-size: 18px;&quot;&gt;created_at&lt;/font&gt;" style="ellipse;whiteSpace=wrap;html=1;align=center;hachureGap=4;fontFamily=Architects Daughter;fontSource=https%3A%2F%2Ffonts.googleapis.com%2Fcss%3Ffamily%3DArchitects%2BDaughter;fontSize=20;rounded=0;sketch=1;curveFitting=1;jiggle=2;" parent="1" vertex="1">
                    <mxGeometry x="340" y="315" width="100" height="40" as="geometry"/>
                </mxCell>
                <mxCell id="18" value="&lt;font style=&quot;font-size: 18px;&quot;&gt;updated_at&lt;/font&gt;" style="ellipse;whiteSpace=wrap;html=1;align=center;hachureGap=4;fontFamily=Architects Daughter;fontSource=https%3A%2F%2Ffonts.googleapis.com%2Fcss%3Ffamily%3DArchitects%2BDaughter;fontSize=20;rounded=0;sketch=1;curveFitting=1;jiggle=2;" parent="1" vertex="1">
                    <mxGeometry x="780" y="240" width="100" height="40" as="geometry"/>
                </mxCell>
                <mxCell id="148" style="edgeStyle=none;hachureGap=4;html=1;entryX=0.5;entryY=1;entryDx=0;entryDy=0;fontFamily=Architects Daughter;fontSource=https%3A%2F%2Ffonts.googleapis.com%2Fcss%3Ffamily%3DArchitects%2BDaughter;fontSize=16;endArrow=none;endFill=0;rounded=0;sketch=1;curveFitting=1;jiggle=2;" parent="1" source="19" target="20" edge="1">
                    <mxGeometry relative="1" as="geometry"/>
                </mxCell>
                <mxCell id="149" style="edgeStyle=none;hachureGap=4;html=1;fontFamily=Architects Daughter;fontSource=https%3A%2F%2Ffonts.googleapis.com%2Fcss%3Ffamily%3DArchitects%2BDaughter;fontSize=16;endArrow=none;endFill=0;entryX=0.047;entryY=0.68;entryDx=0;entryDy=0;exitX=0;exitY=0.75;exitDx=0;exitDy=0;entryPerimeter=0;rounded=0;sketch=1;curveFitting=1;jiggle=2;" parent="1" source="19" target="22" edge="1">
                    <mxGeometry relative="1" as="geometry">
                        <mxPoint x="-440" y="380" as="targetPoint"/>
                        <Array as="points">
                            <mxPoint x="-320" y="370"/>
                        </Array>
                    </mxGeometry>
                </mxCell>
                <mxCell id="150" style="edgeStyle=none;hachureGap=4;html=1;exitX=0.611;exitY=-0.013;exitDx=0;exitDy=0;entryX=0.5;entryY=1;entryDx=0;entryDy=0;fontFamily=Architects Daughter;fontSource=https%3A%2F%2Ffonts.googleapis.com%2Fcss%3Ffamily%3DArchitects%2BDaughter;fontSize=16;endArrow=none;endFill=0;exitPerimeter=0;rounded=0;sketch=1;curveFitting=1;jiggle=2;" parent="1" source="19" target="35" edge="1">
                    <mxGeometry relative="1" as="geometry"/>
                </mxCell>
                <mxCell id="151" style="edgeStyle=none;hachureGap=4;html=1;entryX=0.5;entryY=1;entryDx=0;entryDy=0;fontFamily=Architects Daughter;fontSource=https%3A%2F%2Ffonts.googleapis.com%2Fcss%3Ffamily%3DArchitects%2BDaughter;fontSize=16;endArrow=none;endFill=0;rounded=0;sketch=1;curveFitting=1;jiggle=2;" parent="1" source="19" target="21" edge="1">
                    <mxGeometry relative="1" as="geometry"/>
                </mxCell>
                <mxCell id="154" style="edgeStyle=none;hachureGap=4;html=1;entryX=0.463;entryY=1.025;entryDx=0;entryDy=0;entryPerimeter=0;fontFamily=Architects Daughter;fontSource=https%3A%2F%2Ffonts.googleapis.com%2Fcss%3Ffamily%3DArchitects%2BDaughter;fontSize=16;endArrow=none;endFill=0;rounded=0;sketch=1;curveFitting=1;jiggle=2;" parent="1" source="19" target="153" edge="1">
                    <mxGeometry relative="1" as="geometry"/>
                </mxCell>
                <mxCell id="155" style="edgeStyle=none;hachureGap=4;html=1;entryX=0.5;entryY=1;entryDx=0;entryDy=0;fontFamily=Architects Daughter;fontSource=https%3A%2F%2Ffonts.googleapis.com%2Fcss%3Ffamily%3DArchitects%2BDaughter;fontSize=16;endArrow=none;endFill=0;rounded=0;sketch=1;curveFitting=1;jiggle=2;" parent="1" source="19" target="36" edge="1">
                    <mxGeometry relative="1" as="geometry"/>
                </mxCell>
                <mxCell id="158" style="edgeStyle=none;hachureGap=4;html=1;entryX=0.5;entryY=1;entryDx=0;entryDy=0;fontFamily=Architects Daughter;fontSource=https%3A%2F%2Ffonts.googleapis.com%2Fcss%3Ffamily%3DArchitects%2BDaughter;fontSize=16;endArrow=none;endFill=0;rounded=0;sketch=1;curveFitting=1;jiggle=2;" parent="1" source="19" target="25" edge="1">
                    <mxGeometry relative="1" as="geometry"/>
                </mxCell>
                <mxCell id="160" style="edgeStyle=none;hachureGap=4;html=1;exitX=-0.002;exitY=0.675;exitDx=0;exitDy=0;fontFamily=Architects Daughter;fontSource=https%3A%2F%2Ffonts.googleapis.com%2Fcss%3Ffamily%3DArchitects%2BDaughter;fontSize=16;endArrow=none;endFill=0;exitPerimeter=0;rounded=0;sketch=1;curveFitting=1;jiggle=2;" parent="1" source="19" target="39" edge="1">
                    <mxGeometry relative="1" as="geometry"/>
                </mxCell>
                <mxCell id="162" style="edgeStyle=none;hachureGap=4;html=1;entryX=1;entryY=0.5;entryDx=0;entryDy=0;fontFamily=Architects Daughter;fontSource=https%3A%2F%2Ffonts.googleapis.com%2Fcss%3Ffamily%3DArchitects%2BDaughter;fontSize=16;endArrow=none;endFill=0;exitX=0;exitY=0.605;exitDx=0;exitDy=0;exitPerimeter=0;rounded=0;sketch=1;curveFitting=1;jiggle=2;" parent="1" source="19" target="40" edge="1">
                    <mxGeometry relative="1" as="geometry"/>
                </mxCell>
                <mxCell id="19" value="Place" style="whiteSpace=wrap;html=1;align=center;hachureGap=4;fontFamily=Architects Daughter;fontSource=https%3A%2F%2Ffonts.googleapis.com%2Fcss%3Ffamily%3DArchitects%2BDaughter;fontSize=20;rounded=0;sketch=1;curveFitting=1;jiggle=2;" parent="1" vertex="1">
                    <mxGeometry x="-385" y="340" width="120" height="50" as="geometry"/>
                </mxCell>
                <mxCell id="20" value="id" style="ellipse;whiteSpace=wrap;html=1;align=center;fontStyle=4;hachureGap=4;fontFamily=Architects Daughter;fontSource=https%3A%2F%2Ffonts.googleapis.com%2Fcss%3Ffamily%3DArchitects%2BDaughter;fontSize=20;rounded=0;sketch=1;curveFitting=1;jiggle=2;" parent="1" vertex="1">
                    <mxGeometry x="-385" y="200" width="100" height="40" as="geometry"/>
                </mxCell>
                <mxCell id="21" value="title" style="ellipse;whiteSpace=wrap;html=1;align=center;hachureGap=4;fontFamily=Architects Daughter;fontSource=https%3A%2F%2Ffonts.googleapis.com%2Fcss%3Ffamily%3DArchitects%2BDaughter;fontSize=20;rounded=0;sketch=1;curveFitting=1;jiggle=2;" parent="1" vertex="1">
                    <mxGeometry x="-240" y="280" width="100" height="40" as="geometry"/>
                </mxCell>
                <mxCell id="22" value="&lt;font style=&quot;font-size: 18px;&quot;&gt;description&lt;/font&gt;" style="ellipse;whiteSpace=wrap;html=1;align=center;hachureGap=4;fontFamily=Architects Daughter;fontSource=https%3A%2F%2Ffonts.googleapis.com%2Fcss%3Ffamily%3DArchitects%2BDaughter;fontSize=20;rounded=0;sketch=1;curveFitting=1;jiggle=2;" parent="1" vertex="1">
                    <mxGeometry x="-220" y="330" width="100" height="40" as="geometry"/>
                </mxCell>
                <mxCell id="25" value="&lt;font style=&quot;font-size: 12px;&quot;&gt;dateTime&lt;/font&gt;" style="ellipse;whiteSpace=wrap;html=1;align=center;hachureGap=4;fontFamily=Architects Daughter;fontSource=https%3A%2F%2Ffonts.googleapis.com%2Fcss%3Ffamily%3DArchitects%2BDaughter;fontSize=20;rounded=0;sketch=1;curveFitting=1;jiggle=2;" parent="1" vertex="1">
                    <mxGeometry x="-530" y="225" width="100" height="40" as="geometry"/>
                </mxCell>
                <mxCell id="35" value="price" style="ellipse;whiteSpace=wrap;html=1;align=center;hachureGap=4;fontFamily=Architects Daughter;fontSource=https%3A%2F%2Ffonts.googleapis.com%2Fcss%3Ffamily%3DArchitects%2BDaughter;fontSize=20;rounded=0;sketch=1;curveFitting=1;jiggle=2;" parent="1" vertex="1">
                    <mxGeometry x="-320" y="245" width="90" height="40" as="geometry"/>
                </mxCell>
                <mxCell id="36" value="capacity" style="ellipse;whiteSpace=wrap;html=1;align=center;hachureGap=4;fontFamily=Architects Daughter;fontSource=https%3A%2F%2Ffonts.googleapis.com%2Fcss%3Ffamily%3DArchitects%2BDaughter;fontSize=20;rounded=0;sketch=1;curveFitting=1;jiggle=2;" parent="1" vertex="1">
                    <mxGeometry x="-240" y="200" width="100" height="40" as="geometry"/>
                </mxCell>
                <mxCell id="39" value="&lt;font style=&quot;font-size: 18px;&quot;&gt;created_at&lt;/font&gt;" style="ellipse;whiteSpace=wrap;html=1;align=center;hachureGap=4;fontFamily=Architects Daughter;fontSource=https%3A%2F%2Ffonts.googleapis.com%2Fcss%3Ffamily%3DArchitects%2BDaughter;fontSize=20;rounded=0;sketch=1;curveFitting=1;jiggle=2;" parent="1" vertex="1">
                    <mxGeometry x="-580" y="340" width="100" height="40" as="geometry"/>
                </mxCell>
                <mxCell id="40" value="&lt;font style=&quot;font-size: 18px;&quot;&gt;updated_at&lt;/font&gt;" style="ellipse;whiteSpace=wrap;html=1;align=center;hachureGap=4;fontFamily=Architects Daughter;fontSource=https%3A%2F%2Ffonts.googleapis.com%2Fcss%3Ffamily%3DArchitects%2BDaughter;fontSize=20;rounded=0;sketch=1;curveFitting=1;jiggle=2;" parent="1" vertex="1">
                    <mxGeometry x="-570" y="285" width="100" height="40" as="geometry"/>
                </mxCell>
                <mxCell id="126" style="edgeStyle=none;hachureGap=4;html=1;entryX=0.5;entryY=1;entryDx=0;entryDy=0;fontFamily=Architects Daughter;fontSource=https%3A%2F%2Ffonts.googleapis.com%2Fcss%3Ffamily%3DArchitects%2BDaughter;fontSize=16;endArrow=none;endFill=0;exitX=0.5;exitY=0;exitDx=0;exitDy=0;rounded=0;sketch=1;curveFitting=1;jiggle=2;" parent="1" source="41" target="42" edge="1">
                    <mxGeometry relative="1" as="geometry"/>
                </mxCell>
                <mxCell id="127" style="edgeStyle=none;hachureGap=4;html=1;entryX=0.5;entryY=1;entryDx=0;entryDy=0;fontFamily=Architects Daughter;fontSource=https%3A%2F%2Ffonts.googleapis.com%2Fcss%3Ffamily%3DArchitects%2BDaughter;fontSize=16;endArrow=none;endFill=0;rounded=0;sketch=1;curveFitting=1;jiggle=2;" parent="1" source="41" target="43" edge="1">
                    <mxGeometry relative="1" as="geometry"/>
                </mxCell>
                <mxCell id="128" style="edgeStyle=none;hachureGap=4;html=1;entryX=0.5;entryY=1;entryDx=0;entryDy=0;fontFamily=Architects Daughter;fontSource=https%3A%2F%2Ffonts.googleapis.com%2Fcss%3Ffamily%3DArchitects%2BDaughter;fontSize=16;endArrow=none;endFill=0;exitX=0.5;exitY=0;exitDx=0;exitDy=0;rounded=0;sketch=1;curveFitting=1;jiggle=2;" parent="1" source="41" target="44" edge="1">
                    <mxGeometry relative="1" as="geometry"/>
                </mxCell>
                <mxCell id="41" value="Ticket" style="whiteSpace=wrap;html=1;align=center;hachureGap=4;fontFamily=Architects Daughter;fontSource=https%3A%2F%2Ffonts.googleapis.com%2Fcss%3Ffamily%3DArchitects%2BDaughter;fontSize=20;rounded=0;sketch=1;curveFitting=1;jiggle=2;" parent="1" vertex="1">
                    <mxGeometry x="-250" y="640" width="120" height="50" as="geometry"/>
                </mxCell>
                <mxCell id="42" value="id" style="ellipse;whiteSpace=wrap;html=1;align=center;fontStyle=4;hachureGap=4;fontFamily=Architects Daughter;fontSource=https%3A%2F%2Ffonts.googleapis.com%2Fcss%3Ffamily%3DArchitects%2BDaughter;fontSize=20;rounded=0;sketch=1;curveFitting=1;jiggle=2;" parent="1" vertex="1">
                    <mxGeometry x="-140" y="555" width="100" height="40" as="geometry"/>
                </mxCell>
                <mxCell id="43" value="status" style="ellipse;whiteSpace=wrap;html=1;align=center;hachureGap=4;fontFamily=Architects Daughter;fontSource=https%3A%2F%2Ffonts.googleapis.com%2Fcss%3Ffamily%3DArchitects%2BDaughter;fontSize=18;rounded=0;sketch=1;curveFitting=1;jiggle=2;" parent="1" vertex="1">
                    <mxGeometry x="-250" y="545" width="100" height="40" as="geometry"/>
                </mxCell>
                <mxCell id="44" value="created_at" style="ellipse;whiteSpace=wrap;html=1;align=center;hachureGap=4;fontFamily=Architects Daughter;fontSource=https%3A%2F%2Ffonts.googleapis.com%2Fcss%3Ffamily%3DArchitects%2BDaughter;fontSize=18;rounded=0;sketch=1;curveFitting=1;jiggle=2;" parent="1" vertex="1">
                    <mxGeometry x="-360" y="555" width="100" height="40" as="geometry"/>
                </mxCell>
                <mxCell id="46" value="lastName" style="ellipse;whiteSpace=wrap;html=1;align=center;hachureGap=4;fontFamily=Architects Daughter;fontSource=https%3A%2F%2Ffonts.googleapis.com%2Fcss%3Ffamily%3DArchitects%2BDaughter;fontSize=20;rounded=0;sketch=1;curveFitting=1;jiggle=2;" parent="1" vertex="1">
                    <mxGeometry x="610" y="175" width="100" height="40" as="geometry"/>
                </mxCell>
                <mxCell id="47" value="&lt;span style=&quot;font-size: 18px;&quot;&gt;firstName&lt;/span&gt;" style="ellipse;whiteSpace=wrap;html=1;align=center;hachureGap=4;fontFamily=Architects Daughter;fontSource=https%3A%2F%2Ffonts.googleapis.com%2Fcss%3Ffamily%3DArchitects%2BDaughter;fontSize=20;rounded=0;sketch=1;curveFitting=1;jiggle=2;" parent="1" vertex="1">
                    <mxGeometry x="490" y="185" width="100" height="40" as="geometry"/>
                </mxCell>
                <mxCell id="135" style="edgeStyle=none;hachureGap=4;html=1;entryX=0.5;entryY=1;entryDx=0;entryDy=0;fontFamily=Architects Daughter;fontSource=https%3A%2F%2Ffonts.googleapis.com%2Fcss%3Ffamily%3DArchitects%2BDaughter;fontSize=16;endArrow=none;endFill=0;rounded=0;sketch=1;curveFitting=1;jiggle=2;" parent="1" source="59" target="60" edge="1">
                    <mxGeometry relative="1" as="geometry"/>
                </mxCell>
                <mxCell id="137" style="edgeStyle=none;hachureGap=4;html=1;entryX=0.488;entryY=1.065;entryDx=0;entryDy=0;entryPerimeter=0;fontFamily=Architects Daughter;fontSource=https%3A%2F%2Ffonts.googleapis.com%2Fcss%3Ffamily%3DArchitects%2BDaughter;fontSize=16;endArrow=none;endFill=0;rounded=0;sketch=1;curveFitting=1;jiggle=2;" parent="1" source="59" target="63" edge="1">
                    <mxGeometry relative="1" as="geometry"/>
                </mxCell>
                <mxCell id="138" style="edgeStyle=none;hachureGap=4;html=1;entryX=0.5;entryY=1;entryDx=0;entryDy=0;fontFamily=Architects Daughter;fontSource=https%3A%2F%2Ffonts.googleapis.com%2Fcss%3Ffamily%3DArchitects%2BDaughter;fontSize=16;endArrow=none;endFill=0;rounded=0;sketch=1;curveFitting=1;jiggle=2;" parent="1" source="59" target="61" edge="1">
                    <mxGeometry relative="1" as="geometry"/>
                </mxCell>
                <mxCell id="139" style="edgeStyle=none;hachureGap=4;html=1;exitX=0.291;exitY=-0.028;exitDx=0;exitDy=0;entryX=0.5;entryY=1;entryDx=0;entryDy=0;fontFamily=Architects Daughter;fontSource=https%3A%2F%2Ffonts.googleapis.com%2Fcss%3Ffamily%3DArchitects%2BDaughter;fontSize=16;endArrow=none;endFill=0;exitPerimeter=0;rounded=0;sketch=1;curveFitting=1;jiggle=2;" parent="1" source="59" target="62" edge="1">
                    <mxGeometry relative="1" as="geometry"/>
                </mxCell>
                <mxCell id="59" value="Review" style="shape=ext;margin=3;double=1;whiteSpace=wrap;html=1;align=center;hachureGap=4;fontFamily=Architects Daughter;fontSource=https%3A%2F%2Ffonts.googleapis.com%2Fcss%3Ffamily%3DArchitects%2BDaughter;fontSize=18;rounded=0;sketch=1;curveFitting=1;jiggle=2;" parent="1" vertex="1">
                    <mxGeometry x="1440" y="340" width="100" height="40" as="geometry"/>
                </mxCell>
                <mxCell id="60" value="&lt;span style=&quot;border-bottom: 1px dotted&quot;&gt;id&lt;/span&gt;" style="ellipse;whiteSpace=wrap;html=1;align=center;hachureGap=4;fontFamily=Architects Daughter;fontSource=https%3A%2F%2Ffonts.googleapis.com%2Fcss%3Ffamily%3DArchitects%2BDaughter;fontSize=18;rounded=0;sketch=1;curveFitting=1;jiggle=2;" parent="1" vertex="1">
                    <mxGeometry x="1510" y="210" width="100" height="40" as="geometry"/>
                </mxCell>
                <mxCell id="61" value="rating" style="ellipse;whiteSpace=wrap;html=1;align=center;hachureGap=4;fontFamily=Architects Daughter;fontSource=https%3A%2F%2Ffonts.googleapis.com%2Fcss%3Ffamily%3DArchitects%2BDaughter;fontSize=18;rounded=0;sketch=1;curveFitting=1;jiggle=2;" parent="1" vertex="1">
                    <mxGeometry x="1400" y="200" width="100" height="40" as="geometry"/>
                </mxCell>
                <mxCell id="62" value="comment" style="ellipse;whiteSpace=wrap;html=1;align=center;hachureGap=4;fontFamily=Architects Daughter;fontSource=https%3A%2F%2Ffonts.googleapis.com%2Fcss%3Ffamily%3DArchitects%2BDaughter;fontSize=18;rounded=0;sketch=1;curveFitting=1;jiggle=2;" parent="1" vertex="1">
                    <mxGeometry x="1330" y="250" width="100" height="40" as="geometry"/>
                </mxCell>
                <mxCell id="63" value="created_at" style="ellipse;whiteSpace=wrap;html=1;align=center;hachureGap=4;fontFamily=Architects Daughter;fontSource=https%3A%2F%2Ffonts.googleapis.com%2Fcss%3Ffamily%3DArchitects%2BDaughter;fontSize=18;rounded=0;sketch=1;curveFitting=1;jiggle=2;" parent="1" vertex="1">
                    <mxGeometry x="1590" y="255" width="100" height="40" as="geometry"/>
                </mxCell>
                <mxCell id="140" style="edgeStyle=none;hachureGap=4;html=1;entryX=0.5;entryY=1;entryDx=0;entryDy=0;fontFamily=Architects Daughter;fontSource=https%3A%2F%2Ffonts.googleapis.com%2Fcss%3Ffamily%3DArchitects%2BDaughter;fontSize=16;endArrow=none;endFill=0;rounded=0;sketch=1;curveFitting=1;jiggle=2;" parent="1" source="64" target="65" edge="1">
                    <mxGeometry relative="1" as="geometry"/>
                </mxCell>
                <mxCell id="141" style="edgeStyle=none;hachureGap=4;html=1;exitX=0.75;exitY=0;exitDx=0;exitDy=0;entryX=0.5;entryY=1;entryDx=0;entryDy=0;fontFamily=Architects Daughter;fontSource=https%3A%2F%2Ffonts.googleapis.com%2Fcss%3Ffamily%3DArchitects%2BDaughter;fontSize=16;endArrow=none;endFill=0;rounded=0;sketch=1;curveFitting=1;jiggle=2;" parent="1" source="64" target="67" edge="1">
                    <mxGeometry relative="1" as="geometry"/>
                </mxCell>
                <mxCell id="142" style="edgeStyle=none;hachureGap=4;html=1;entryX=0.5;entryY=1;entryDx=0;entryDy=0;fontFamily=Architects Daughter;fontSource=https%3A%2F%2Ffonts.googleapis.com%2Fcss%3Ffamily%3DArchitects%2BDaughter;fontSize=16;endArrow=none;endFill=0;rounded=0;sketch=1;curveFitting=1;jiggle=2;" parent="1" source="64" target="66" edge="1">
                    <mxGeometry relative="1" as="geometry"/>
                </mxCell>
                <mxCell id="64" value="Notification" style="whiteSpace=wrap;html=1;align=center;hachureGap=4;fontFamily=Architects Daughter;fontSource=https%3A%2F%2Ffonts.googleapis.com%2Fcss%3Ffamily%3DArchitects%2BDaughter;fontSize=20;rounded=0;sketch=1;curveFitting=1;jiggle=2;" parent="1" vertex="1">
                    <mxGeometry x="125" y="640" width="120" height="50" as="geometry"/>
                </mxCell>
                <mxCell id="65" value="id" style="ellipse;whiteSpace=wrap;html=1;align=center;fontStyle=4;hachureGap=4;fontFamily=Architects Daughter;fontSource=https%3A%2F%2Ffonts.googleapis.com%2Fcss%3Ffamily%3DArchitects%2BDaughter;fontSize=20;rounded=0;sketch=1;curveFitting=1;jiggle=2;" parent="1" vertex="1">
                    <mxGeometry x="135" y="560" width="100" height="40" as="geometry"/>
                </mxCell>
                <mxCell id="66" value="&lt;font style=&quot;font-size: 18px;&quot;&gt;message&lt;/font&gt;" style="ellipse;whiteSpace=wrap;html=1;align=center;hachureGap=4;fontFamily=Architects Daughter;fontSource=https%3A%2F%2Ffonts.googleapis.com%2Fcss%3Ffamily%3DArchitects%2BDaughter;fontSize=20;rounded=0;sketch=1;curveFitting=1;jiggle=2;" parent="1" vertex="1">
                    <mxGeometry x="15" y="580" width="100" height="40" as="geometry"/>
                </mxCell>
                <mxCell id="67" value="&lt;font style=&quot;font-size: 18px;&quot;&gt;created_at&lt;/font&gt;" style="ellipse;whiteSpace=wrap;html=1;align=center;hachureGap=4;fontFamily=Architects Daughter;fontSource=https%3A%2F%2Ffonts.googleapis.com%2Fcss%3Ffamily%3DArchitects%2BDaughter;fontSize=20;rounded=0;sketch=1;curveFitting=1;jiggle=2;" parent="1" vertex="1">
                    <mxGeometry x="259" y="580" width="100" height="40" as="geometry"/>
                </mxCell>
                <mxCell id="165" style="edgeStyle=none;hachureGap=4;html=1;entryX=0.5;entryY=1;entryDx=0;entryDy=0;fontFamily=Architects Daughter;fontSource=https%3A%2F%2Ffonts.googleapis.com%2Fcss%3Ffamily%3DArchitects%2BDaughter;fontSize=16;endArrow=none;endFill=0;rounded=0;sketch=1;curveFitting=1;jiggle=2;" parent="1" source="87" target="88" edge="1">
                    <mxGeometry relative="1" as="geometry"/>
                </mxCell>
                <mxCell id="166" style="edgeStyle=none;hachureGap=4;html=1;entryX=0.329;entryY=0.978;entryDx=0;entryDy=0;fontFamily=Architects Daughter;fontSource=https%3A%2F%2Ffonts.googleapis.com%2Fcss%3Ffamily%3DArchitects%2BDaughter;fontSize=16;endArrow=none;endFill=0;exitX=1;exitY=0.25;exitDx=0;exitDy=0;entryPerimeter=0;rounded=0;sketch=1;curveFitting=1;jiggle=2;" parent="1" source="87" target="93" edge="1">
                    <mxGeometry relative="1" as="geometry"/>
                </mxCell>
                <mxCell id="167" style="edgeStyle=none;hachureGap=4;html=1;exitX=0.5;exitY=0;exitDx=0;exitDy=0;entryX=0.5;entryY=1;entryDx=0;entryDy=0;fontFamily=Architects Daughter;fontSource=https%3A%2F%2Ffonts.googleapis.com%2Fcss%3Ffamily%3DArchitects%2BDaughter;fontSize=16;endArrow=none;endFill=0;rounded=0;sketch=1;curveFitting=1;jiggle=2;" parent="1" source="87" target="91" edge="1">
                    <mxGeometry relative="1" as="geometry"/>
                </mxCell>
                <mxCell id="169" style="edgeStyle=none;hachureGap=4;html=1;entryX=0.5;entryY=1;entryDx=0;entryDy=0;fontFamily=Architects Daughter;fontSource=https%3A%2F%2Ffonts.googleapis.com%2Fcss%3Ffamily%3DArchitects%2BDaughter;fontSize=16;endArrow=none;endFill=0;rounded=0;sketch=1;curveFitting=1;jiggle=2;" parent="1" source="87" target="90" edge="1">
                    <mxGeometry relative="1" as="geometry"/>
                </mxCell>
                <mxCell id="170" style="edgeStyle=none;hachureGap=4;html=1;entryX=0.5;entryY=1;entryDx=0;entryDy=0;fontFamily=Architects Daughter;fontSource=https%3A%2F%2Ffonts.googleapis.com%2Fcss%3Ffamily%3DArchitects%2BDaughter;fontSize=16;endArrow=none;endFill=0;rounded=0;sketch=1;curveFitting=1;jiggle=2;" parent="1" source="87" target="89" edge="1">
                    <mxGeometry relative="1" as="geometry"/>
                </mxCell>
                <mxCell id="171" style="edgeStyle=none;hachureGap=4;html=1;exitX=0;exitY=0.5;exitDx=0;exitDy=0;entryX=1;entryY=0.5;entryDx=0;entryDy=0;fontFamily=Architects Daughter;fontSource=https%3A%2F%2Ffonts.googleapis.com%2Fcss%3Ffamily%3DArchitects%2BDaughter;fontSize=16;endArrow=none;endFill=0;rounded=0;sketch=1;curveFitting=1;jiggle=2;" parent="1" source="87" target="96" edge="1">
                    <mxGeometry relative="1" as="geometry"/>
                </mxCell>
                <mxCell id="87" value="Invoice" style="whiteSpace=wrap;html=1;align=center;hachureGap=4;fontFamily=Architects Daughter;fontSource=https%3A%2F%2Ffonts.googleapis.com%2Fcss%3Ffamily%3DArchitects%2BDaughter;fontSize=18;rounded=0;sketch=1;curveFitting=1;jiggle=2;" parent="1" vertex="1">
                    <mxGeometry y="920" width="100" height="40" as="geometry"/>
                </mxCell>
                <mxCell id="88" value="id" style="ellipse;whiteSpace=wrap;html=1;align=center;fontStyle=4;hachureGap=4;fontFamily=Architects Daughter;fontSource=https%3A%2F%2Ffonts.googleapis.com%2Fcss%3Ffamily%3DArchitects%2BDaughter;fontSize=18;rounded=0;sketch=1;curveFitting=1;jiggle=2;" parent="1" vertex="1">
                    <mxGeometry x="125" y="820" width="100" height="40" as="geometry"/>
                </mxCell>
                <mxCell id="89" value="ticketIds" style="ellipse;whiteSpace=wrap;html=1;align=center;hachureGap=4;fontFamily=Architects Daughter;fontSource=https%3A%2F%2Ffonts.googleapis.com%2Fcss%3Ffamily%3DArchitects%2BDaughter;fontSize=18;rounded=0;sketch=1;curveFitting=1;jiggle=2;" parent="1" vertex="1">
                    <mxGeometry x="-140" y="850" width="100" height="40" as="geometry"/>
                </mxCell>
                <mxCell id="90" value="amount" style="ellipse;whiteSpace=wrap;html=1;align=center;hachureGap=4;fontFamily=Architects Daughter;fontSource=https%3A%2F%2Ffonts.googleapis.com%2Fcss%3Ffamily%3DArchitects%2BDaughter;fontSize=18;rounded=0;sketch=1;curveFitting=1;jiggle=2;" parent="1" vertex="1">
                    <mxGeometry x="-70" y="810" width="100" height="40" as="geometry"/>
                </mxCell>
                <mxCell id="91" value="status" style="ellipse;whiteSpace=wrap;html=1;align=center;hachureGap=4;fontFamily=Architects Daughter;fontSource=https%3A%2F%2Ffonts.googleapis.com%2Fcss%3Ffamily%3DArchitects%2BDaughter;fontSize=18;rounded=0;sketch=1;curveFitting=1;jiggle=2;" parent="1" vertex="1">
                    <mxGeometry x="15" y="840" width="100" height="40" as="geometry"/>
                </mxCell>
                <mxCell id="93" value="&lt;font style=&quot;font-size: 14px;&quot;&gt;transactionId&lt;/font&gt;" style="ellipse;whiteSpace=wrap;html=1;align=center;hachureGap=4;fontFamily=Architects Daughter;fontSource=https%3A%2F%2Ffonts.googleapis.com%2Fcss%3Ffamily%3DArchitects%2BDaughter;fontSize=18;rounded=0;sketch=1;curveFitting=1;jiggle=2;" parent="1" vertex="1">
                    <mxGeometry x="161.01999999999998" y="870" width="100" height="40" as="geometry"/>
                </mxCell>
                <mxCell id="96" value="&lt;font style=&quot;font-size: 14px;&quot;&gt;created_at&lt;/font&gt;" style="ellipse;whiteSpace=wrap;html=1;align=center;hachureGap=4;fontFamily=Architects Daughter;fontSource=https%3A%2F%2Ffonts.googleapis.com%2Fcss%3Ffamily%3DArchitects%2BDaughter;fontSize=18;rounded=0;sketch=1;curveFitting=1;jiggle=2;" parent="1" vertex="1">
                    <mxGeometry x="-140" y="910" width="100" height="40" as="geometry"/>
                </mxCell>
                <mxCell id="143" style="edgeStyle=none;hachureGap=4;html=1;entryX=0.5;entryY=1;entryDx=0;entryDy=0;fontFamily=Architects Daughter;fontSource=https%3A%2F%2Ffonts.googleapis.com%2Fcss%3Ffamily%3DArchitects%2BDaughter;fontSize=16;endArrow=none;endFill=0;rounded=0;sketch=1;curveFitting=1;jiggle=2;" parent="1" source="97" target="98" edge="1">
                    <mxGeometry relative="1" as="geometry"/>
                </mxCell>
                <mxCell id="144" style="edgeStyle=none;hachureGap=4;html=1;entryX=0.5;entryY=1;entryDx=0;entryDy=0;fontFamily=Architects Daughter;fontSource=https%3A%2F%2Ffonts.googleapis.com%2Fcss%3Ffamily%3DArchitects%2BDaughter;fontSize=16;endArrow=none;endFill=0;rounded=0;sketch=1;curveFitting=1;jiggle=2;" parent="1" source="97" target="100" edge="1">
                    <mxGeometry relative="1" as="geometry"/>
                </mxCell>
                <mxCell id="145" style="edgeStyle=none;hachureGap=4;html=1;entryX=0.5;entryY=1;entryDx=0;entryDy=0;fontFamily=Architects Daughter;fontSource=https%3A%2F%2Ffonts.googleapis.com%2Fcss%3Ffamily%3DArchitects%2BDaughter;fontSize=16;endArrow=none;endFill=0;rounded=0;sketch=1;curveFitting=1;jiggle=2;" parent="1" source="97" target="101" edge="1">
                    <mxGeometry relative="1" as="geometry"/>
                </mxCell>
                <mxCell id="146" style="edgeStyle=none;hachureGap=4;html=1;entryX=0.5;entryY=1;entryDx=0;entryDy=0;fontFamily=Architects Daughter;fontSource=https%3A%2F%2Ffonts.googleapis.com%2Fcss%3Ffamily%3DArchitects%2BDaughter;fontSize=16;endArrow=none;endFill=0;rounded=0;sketch=1;curveFitting=1;jiggle=2;" parent="1" source="97" target="102" edge="1">
                    <mxGeometry relative="1" as="geometry"/>
                </mxCell>
                <mxCell id="147" style="edgeStyle=none;hachureGap=4;html=1;fontFamily=Architects Daughter;fontSource=https%3A%2F%2Ffonts.googleapis.com%2Fcss%3Ffamily%3DArchitects%2BDaughter;fontSize=16;endArrow=none;endFill=0;rounded=0;sketch=1;curveFitting=1;jiggle=2;" parent="1" source="97" target="104" edge="1">
                    <mxGeometry relative="1" as="geometry"/>
                </mxCell>
                <mxCell id="367" style="edgeStyle=none;hachureGap=4;html=1;exitX=0.25;exitY=0;exitDx=0;exitDy=0;entryX=0.5;entryY=1;entryDx=0;entryDy=0;fontFamily=Architects Daughter;fontSource=https%3A%2F%2Ffonts.googleapis.com%2Fcss%3Ffamily%3DArchitects%2BDaughter;fontSize=14;endArrow=none;endFill=0;rounded=0;sketch=1;curveFitting=1;jiggle=2;" parent="1" source="97" target="366" edge="1">
                    <mxGeometry relative="1" as="geometry"/>
                </mxCell>
                <mxCell id="369" style="edgeStyle=none;hachureGap=4;html=1;exitX=1;exitY=0.5;exitDx=0;exitDy=0;entryX=0.5;entryY=1;entryDx=0;entryDy=0;fontFamily=Architects Daughter;fontSource=https%3A%2F%2Ffonts.googleapis.com%2Fcss%3Ffamily%3DArchitects%2BDaughter;fontSize=14;endArrow=none;endFill=0;rounded=0;sketch=1;curveFitting=1;jiggle=2;" parent="1" source="97" target="368" edge="1">
                    <mxGeometry relative="1" as="geometry"/>
                </mxCell>
                <mxCell id="372" style="edgeStyle=none;hachureGap=4;html=1;exitX=0;exitY=0.25;exitDx=0;exitDy=0;fontFamily=Architects Daughter;fontSource=https%3A%2F%2Ffonts.googleapis.com%2Fcss%3Ffamily%3DArchitects%2BDaughter;fontSize=14;endArrow=none;endFill=0;rounded=0;sketch=1;curveFitting=1;jiggle=2;" parent="1" source="97" target="371" edge="1">
                    <mxGeometry relative="1" as="geometry"/>
                </mxCell>
                <mxCell id="97" value="PlaceCreatorApplication" style="shape=ext;margin=3;double=1;whiteSpace=wrap;html=1;align=center;hachureGap=4;fontFamily=Architects Daughter;fontSource=https%3A%2F%2Ffonts.googleapis.com%2Fcss%3Ffamily%3DArchitects%2BDaughter;fontSize=14;rounded=0;sketch=1;curveFitting=1;jiggle=2;" parent="1" vertex="1">
                    <mxGeometry x="885" y="825" width="200" height="40" as="geometry"/>
                </mxCell>
                <mxCell id="98" value="&lt;span style=&quot;border-bottom: 1px dotted&quot;&gt;id&lt;/span&gt;" style="ellipse;whiteSpace=wrap;html=1;align=center;hachureGap=4;fontFamily=Architects Daughter;fontSource=https%3A%2F%2Ffonts.googleapis.com%2Fcss%3Ffamily%3DArchitects%2BDaughter;fontSize=14;rounded=0;sketch=1;curveFitting=1;jiggle=2;" parent="1" vertex="1">
                    <mxGeometry x="950" y="715" width="100" height="40" as="geometry"/>
                </mxCell>
                <mxCell id="100" value="status" style="ellipse;whiteSpace=wrap;html=1;align=center;hachureGap=4;fontFamily=Architects Daughter;fontSource=https%3A%2F%2Ffonts.googleapis.com%2Fcss%3Ffamily%3DArchitects%2BDaughter;fontSize=18;rounded=0;sketch=1;curveFitting=1;jiggle=2;" parent="1" vertex="1">
                    <mxGeometry x="880" y="670" width="100" height="40" as="geometry"/>
                </mxCell>
                <mxCell id="101" value="&lt;font style=&quot;font-size: 12px;&quot;&gt;reviewComment&lt;/font&gt;" style="ellipse;whiteSpace=wrap;html=1;align=center;hachureGap=4;fontFamily=Architects Daughter;fontSource=https%3A%2F%2Ffonts.googleapis.com%2Fcss%3Ffamily%3DArchitects%2BDaughter;fontSize=18;rounded=0;sketch=1;curveFitting=1;jiggle=2;" parent="1" vertex="1">
                    <mxGeometry x="1025" y="670" width="100" height="40" as="geometry"/>
                </mxCell>
                <mxCell id="102" value="updated_at" style="ellipse;whiteSpace=wrap;html=1;align=center;hachureGap=4;fontFamily=Architects Daughter;fontSource=https%3A%2F%2Ffonts.googleapis.com%2Fcss%3Ffamily%3DArchitects%2BDaughter;fontSize=18;rounded=0;sketch=1;curveFitting=1;jiggle=2;" parent="1" vertex="1">
                    <mxGeometry x="1060" y="725" width="100" height="40" as="geometry"/>
                </mxCell>
                <mxCell id="104" value="created_at" style="ellipse;whiteSpace=wrap;html=1;align=center;hachureGap=4;fontFamily=Architects Daughter;fontSource=https%3A%2F%2Ffonts.googleapis.com%2Fcss%3Ffamily%3DArchitects%2BDaughter;fontSize=18;rounded=0;sketch=1;curveFitting=1;jiggle=2;" parent="1" vertex="1">
                    <mxGeometry x="834" y="715" width="100" height="40" as="geometry"/>
                </mxCell>
                <mxCell id="106" value="" style="hachureGap=4;html=1;fontFamily=Architects Daughter;fontSource=https%3A%2F%2Ffonts.googleapis.com%2Fcss%3Ffamily%3DArchitects%2BDaughter;fontSize=16;endArrow=none;endFill=0;entryX=0.5;entryY=1;entryDx=0;entryDy=0;exitX=0.75;exitY=0;exitDx=0;exitDy=0;rounded=0;sketch=1;curveFitting=1;jiggle=2;" parent="1" source="6" target="7" edge="1">
                    <mxGeometry relative="1" as="geometry">
                        <mxPoint x="620" y="365" as="sourcePoint"/>
                        <mxPoint x="620" y="295" as="targetPoint"/>
                    </mxGeometry>
                </mxCell>
                <mxCell id="111" value="location" style="ellipse;shape=doubleEllipse;margin=3;whiteSpace=wrap;html=1;align=center;hachureGap=4;fontFamily=Architects Daughter;fontSource=https%3A%2F%2Ffonts.googleapis.com%2Fcss%3Ffamily%3DArchitects%2BDaughter;fontSize=20;rounded=0;sketch=1;curveFitting=1;jiggle=2;" parent="1" vertex="1">
                    <mxGeometry x="340" y="255" width="100" height="40" as="geometry"/>
                </mxCell>
                <mxCell id="153" value="location" style="ellipse;shape=doubleEllipse;margin=3;whiteSpace=wrap;html=1;align=center;hachureGap=4;fontFamily=Architects Daughter;fontSource=https%3A%2F%2Ffonts.googleapis.com%2Fcss%3Ffamily%3DArchitects%2BDaughter;fontSize=20;rounded=0;sketch=1;curveFitting=1;jiggle=2;" parent="1" vertex="1">
                    <mxGeometry x="-440" y="255" width="100" height="40" as="geometry"/>
                </mxCell>
                <mxCell id="186" style="edgeStyle=none;hachureGap=4;html=1;entryX=0.5;entryY=1;entryDx=0;entryDy=0;fontFamily=Architects Daughter;fontSource=https%3A%2F%2Ffonts.googleapis.com%2Fcss%3Ffamily%3DArchitects%2BDaughter;fontSize=18;endArrow=none;endFill=0;rounded=0;sketch=1;curveFitting=1;jiggle=2;" parent="1" source="179" target="184" edge="1">
                    <mxGeometry relative="1" as="geometry"/>
                </mxCell>
                <mxCell id="187" style="edgeStyle=none;hachureGap=4;html=1;exitX=0.5;exitY=0;exitDx=0;exitDy=0;entryX=0.6;entryY=1.125;entryDx=0;entryDy=0;entryPerimeter=0;fontFamily=Architects Daughter;fontSource=https%3A%2F%2Ffonts.googleapis.com%2Fcss%3Ffamily%3DArchitects%2BDaughter;fontSize=18;endArrow=none;endFill=0;rounded=0;sketch=1;curveFitting=1;jiggle=2;" parent="1" source="179" target="182" edge="1">
                    <mxGeometry relative="1" as="geometry"/>
                </mxCell>
                <mxCell id="188" style="edgeStyle=none;hachureGap=4;html=1;entryX=0.5;entryY=1;entryDx=0;entryDy=0;fontFamily=Architects Daughter;fontSource=https%3A%2F%2Ffonts.googleapis.com%2Fcss%3Ffamily%3DArchitects%2BDaughter;fontSize=18;endArrow=none;endFill=0;rounded=0;sketch=1;curveFitting=1;jiggle=2;" parent="1" source="179" target="185" edge="1">
                    <mxGeometry relative="1" as="geometry"/>
                </mxCell>
                <mxCell id="179" value="Role" style="whiteSpace=wrap;html=1;align=center;hachureGap=4;fontFamily=Architects Daughter;fontSource=https%3A%2F%2Ffonts.googleapis.com%2Fcss%3Ffamily%3DArchitects%2BDaughter;fontSize=20;rounded=0;sketch=1;curveFitting=1;jiggle=2;" parent="1" vertex="1">
                    <mxGeometry x="1110" y="360" width="100" height="40" as="geometry"/>
                </mxCell>
                <mxCell id="182" value="id" style="ellipse;whiteSpace=wrap;html=1;align=center;fontStyle=4;hachureGap=4;fontFamily=Architects Daughter;fontSource=https%3A%2F%2Ffonts.googleapis.com%2Fcss%3Ffamily%3DArchitects%2BDaughter;fontSize=20;rounded=0;sketch=1;curveFitting=1;jiggle=2;" parent="1" vertex="1">
                    <mxGeometry x="1090" y="235" width="100" height="40" as="geometry"/>
                </mxCell>
                <mxCell id="184" value="name" style="ellipse;whiteSpace=wrap;html=1;align=center;hachureGap=4;fontFamily=Architects Daughter;fontSource=https%3A%2F%2Ffonts.googleapis.com%2Fcss%3Ffamily%3DArchitects%2BDaughter;fontSize=20;rounded=0;sketch=1;curveFitting=1;jiggle=2;" parent="1" vertex="1">
                    <mxGeometry x="1210" y="245" width="100" height="40" as="geometry"/>
                </mxCell>
                <mxCell id="185" value="&lt;font style=&quot;font-size: 18px;&quot;&gt;permissions&lt;/font&gt;" style="ellipse;whiteSpace=wrap;html=1;align=center;hachureGap=4;fontFamily=Architects Daughter;fontSource=https%3A%2F%2Ffonts.googleapis.com%2Fcss%3Ffamily%3DArchitects%2BDaughter;fontSize=20;rounded=0;sketch=1;curveFitting=1;jiggle=2;" parent="1" vertex="1">
                    <mxGeometry x="970" y="245" width="100" height="40" as="geometry"/>
                </mxCell>
                <mxCell id="208" value="has" style="shape=rhombus;perimeter=rhombusPerimeter;whiteSpace=wrap;html=1;align=center;hachureGap=4;fontFamily=Architects Daughter;fontSource=https%3A%2F%2Ffonts.googleapis.com%2Fcss%3Ffamily%3DArchitects%2BDaughter;fontSize=18;rounded=0;sketch=1;curveFitting=1;jiggle=2;" parent="1" vertex="1">
                    <mxGeometry x="900" y="350" width="120" height="60" as="geometry"/>
                </mxCell>
                <mxCell id="212" value="manage" style="shape=rhombus;perimeter=rhombusPerimeter;whiteSpace=wrap;html=1;align=center;hachureGap=4;fontFamily=Architects Daughter;fontSource=https%3A%2F%2Ffonts.googleapis.com%2Fcss%3Ffamily%3DArchitects%2BDaughter;fontSize=18;rounded=0;sketch=1;curveFitting=1;jiggle=2;" parent="1" vertex="1">
                    <mxGeometry x="40.519999999999996" y="465" width="120" height="60" as="geometry"/>
                </mxCell>
                <mxCell id="226" value="" style="endArrow=none;html=1;rounded=0;hachureGap=4;fontFamily=Architects Daughter;fontSource=https%3A%2F%2Ffonts.googleapis.com%2Fcss%3Ffamily%3DArchitects%2BDaughter;fontSize=18;exitX=1;exitY=0.5;exitDx=0;exitDy=0;entryX=0;entryY=0.5;entryDx=0;entryDy=0;sketch=1;curveFitting=1;jiggle=2;" parent="1" source="208" target="179" edge="1">
                    <mxGeometry relative="1" as="geometry">
                        <mxPoint x="1080" y="384.47" as="sourcePoint"/>
                        <mxPoint x="1240" y="384.47" as="targetPoint"/>
                    </mxGeometry>
                </mxCell>
                <mxCell id="228" value="" style="endArrow=none;html=1;rounded=0;hachureGap=4;fontFamily=Architects Daughter;fontSource=https%3A%2F%2Ffonts.googleapis.com%2Fcss%3Ffamily%3DArchitects%2BDaughter;fontSize=18;entryX=0;entryY=0.5;entryDx=0;entryDy=0;exitX=1;exitY=0.5;exitDx=0;exitDy=0;sketch=1;curveFitting=1;jiggle=2;" parent="1" source="6" target="208" edge="1">
                    <mxGeometry relative="1" as="geometry">
                        <mxPoint x="780" y="415" as="sourcePoint"/>
                        <mxPoint x="940" y="415" as="targetPoint"/>
                    </mxGeometry>
                </mxCell>
                <mxCell id="229" value="N" style="resizable=0;html=1;align=right;verticalAlign=bottom;hachureGap=4;fontFamily=Architects Daughter;fontSource=https%3A%2F%2Ffonts.googleapis.com%2Fcss%3Ffamily%3DArchitects%2BDaughter;fontSize=18;rounded=0;sketch=1;curveFitting=1;jiggle=2;" parent="228" connectable="0" vertex="1">
                    <mxGeometry x="1" relative="1" as="geometry">
                        <mxPoint x="5" as="offset"/>
                    </mxGeometry>
                </mxCell>
                <mxCell id="230" value="" style="endArrow=none;html=1;rounded=0;hachureGap=4;fontFamily=Architects Daughter;fontSource=https%3A%2F%2Ffonts.googleapis.com%2Fcss%3Ffamily%3DArchitects%2BDaughter;fontSize=18;exitX=1;exitY=0.5;exitDx=0;exitDy=0;entryX=0.046;entryY=1.015;entryDx=0;entryDy=0;entryPerimeter=0;sketch=1;curveFitting=1;jiggle=2;" parent="1" source="212" target="6" edge="1">
                    <mxGeometry relative="1" as="geometry">
                        <mxPoint x="430" y="455" as="sourcePoint"/>
                        <mxPoint x="560" y="425" as="targetPoint"/>
                        <Array as="points">
                            <mxPoint x="550" y="495"/>
                        </Array>
                    </mxGeometry>
                </mxCell>
                <mxCell id="231" value="1" style="resizable=0;html=1;align=right;verticalAlign=bottom;hachureGap=4;fontFamily=Architects Daughter;fontSource=https%3A%2F%2Ffonts.googleapis.com%2Fcss%3Ffamily%3DArchitects%2BDaughter;fontSize=18;rounded=0;sketch=1;curveFitting=1;jiggle=2;" parent="230" connectable="0" vertex="1">
                    <mxGeometry x="1" relative="1" as="geometry">
                        <mxPoint x="-386" y="84" as="offset"/>
                    </mxGeometry>
                </mxCell>
                <mxCell id="250" value="M" style="resizable=0;html=1;align=right;verticalAlign=bottom;hachureGap=4;fontFamily=Architects Daughter;fontSource=https%3A%2F%2Ffonts.googleapis.com%2Fcss%3Ffamily%3DArchitects%2BDaughter;fontSize=18;rounded=0;sketch=1;curveFitting=1;jiggle=2;" parent="230" connectable="0" vertex="1">
                    <mxGeometry x="1" relative="1" as="geometry">
                        <mxPoint x="-385" y="5" as="offset"/>
                    </mxGeometry>
                </mxCell>
                <mxCell id="232" value="" style="endArrow=none;html=1;rounded=0;hachureGap=4;fontFamily=Architects Daughter;fontSource=https%3A%2F%2Ffonts.googleapis.com%2Fcss%3Ffamily%3DArchitects%2BDaughter;fontSize=14;exitX=0;exitY=0.5;exitDx=0;exitDy=0;entryX=0.447;entryY=1.057;entryDx=0;entryDy=0;entryPerimeter=0;sketch=1;curveFitting=1;jiggle=2;" parent="1" source="212" target="19" edge="1">
                    <mxGeometry relative="1" as="geometry">
                        <mxPoint x="250.51999999999998" y="445" as="sourcePoint"/>
                        <mxPoint x="-290" y="390.5" as="targetPoint"/>
                        <Array as="points">
                            <mxPoint x="-330" y="490"/>
                        </Array>
                    </mxGeometry>
                </mxCell>
                <mxCell id="233" value="N" style="resizable=0;html=1;align=right;verticalAlign=bottom;hachureGap=4;fontFamily=Architects Daughter;fontSource=https%3A%2F%2Ffonts.googleapis.com%2Fcss%3Ffamily%3DArchitects%2BDaughter;fontSize=14;rounded=0;sketch=1;curveFitting=1;jiggle=2;" parent="232" connectable="0" vertex="1">
                    <mxGeometry x="1" relative="1" as="geometry">
                        <mxPoint x="381" y="87" as="offset"/>
                    </mxGeometry>
                </mxCell>
                <mxCell id="376" style="edgeStyle=none;hachureGap=4;html=1;entryX=0.5;entryY=1;entryDx=0;entryDy=0;fontFamily=Architects Daughter;fontSource=https%3A%2F%2Ffonts.googleapis.com%2Fcss%3Ffamily%3DArchitects%2BDaughter;fontSize=16;endArrow=none;endFill=0;rounded=0;sketch=1;curveFitting=1;jiggle=2;" parent="1" source="236" target="333" edge="1">
                    <mxGeometry relative="1" as="geometry"/>
                </mxCell>
                <mxCell id="236" value="book" style="shape=rhombus;perimeter=rhombusPerimeter;whiteSpace=wrap;html=1;align=center;hachureGap=4;fontFamily=Architects Daughter;fontSource=https%3A%2F%2Ffonts.googleapis.com%2Fcss%3Ffamily%3DArchitects%2BDaughter;fontSize=18;rounded=0;sketch=1;curveFitting=1;jiggle=2;" parent="1" vertex="1">
                    <mxGeometry x="40.519999999999996" y="385" width="120" height="60" as="geometry"/>
                </mxCell>
                <mxCell id="239" value="" style="endArrow=none;html=1;rounded=0;hachureGap=4;fontFamily=Architects Daughter;fontSource=https%3A%2F%2Ffonts.googleapis.com%2Fcss%3Ffamily%3DArchitects%2BDaughter;fontSize=14;entryX=0.5;entryY=1;entryDx=0;entryDy=0;exitX=0;exitY=0.5;exitDx=0;exitDy=0;sketch=1;curveFitting=1;jiggle=2;" parent="1" source="236" target="19" edge="1">
                    <mxGeometry relative="1" as="geometry">
                        <mxPoint x="250.51999999999998" y="425" as="sourcePoint"/>
                        <mxPoint x="-249.44000000000005" y="390.10000000000014" as="targetPoint"/>
                        <Array as="points">
                            <mxPoint x="-150" y="415"/>
                            <mxPoint x="-325" y="415"/>
                        </Array>
                    </mxGeometry>
                </mxCell>
                <mxCell id="240" value="N" style="resizable=0;html=1;align=right;verticalAlign=bottom;hachureGap=4;fontFamily=Architects Daughter;fontSource=https%3A%2F%2Ffonts.googleapis.com%2Fcss%3Ffamily%3DArchitects%2BDaughter;fontSize=14;rounded=0;sketch=1;curveFitting=1;jiggle=2;" parent="239" connectable="0" vertex="1">
                    <mxGeometry x="1" relative="1" as="geometry">
                        <mxPoint x="375" y="15" as="offset"/>
                    </mxGeometry>
                </mxCell>
                <mxCell id="241" value="" style="endArrow=none;html=1;rounded=0;hachureGap=4;fontFamily=Architects Daughter;fontSource=https%3A%2F%2Ffonts.googleapis.com%2Fcss%3Ffamily%3DArchitects%2BDaughter;fontSize=14;exitX=1;exitY=0.5;exitDx=0;exitDy=0;entryX=0;entryY=0.5;entryDx=0;entryDy=0;sketch=1;curveFitting=1;jiggle=2;" parent="1" source="236" target="6" edge="1">
                    <mxGeometry relative="1" as="geometry">
                        <mxPoint x="250" y="445" as="sourcePoint"/>
                        <mxPoint x="550" y="405" as="targetPoint"/>
                        <Array as="points">
                            <mxPoint x="360" y="415"/>
                            <mxPoint x="360" y="380"/>
                        </Array>
                    </mxGeometry>
                </mxCell>
                <mxCell id="244" value="applay" style="shape=associativeEntity;whiteSpace=wrap;html=1;align=center;hachureGap=4;fontFamily=Architects Daughter;fontSource=https%3A%2F%2Ffonts.googleapis.com%2Fcss%3Ffamily%3DArchitects%2BDaughter;fontSize=14;rounded=0;sketch=1;curveFitting=1;jiggle=2;" parent="1" vertex="1">
                    <mxGeometry x="535" y="665" width="140" height="60" as="geometry"/>
                </mxCell>
                <mxCell id="245" value="" style="endArrow=none;html=1;rounded=0;hachureGap=4;fontFamily=Architects Daughter;fontSource=https%3A%2F%2Ffonts.googleapis.com%2Fcss%3Ffamily%3DArchitects%2BDaughter;fontSize=14;entryX=0.5;entryY=0;entryDx=0;entryDy=0;exitX=0.75;exitY=1;exitDx=0;exitDy=0;sketch=1;curveFitting=1;jiggle=2;" parent="1" target="244" edge="1">
                    <mxGeometry relative="1" as="geometry">
                        <mxPoint x="605" y="405" as="sourcePoint"/>
                        <mxPoint x="605" y="695" as="targetPoint"/>
                    </mxGeometry>
                </mxCell>
                <mxCell id="246" value="1" style="resizable=0;html=1;align=right;verticalAlign=bottom;hachureGap=4;fontFamily=Architects Daughter;fontSource=https%3A%2F%2Ffonts.googleapis.com%2Fcss%3Ffamily%3DArchitects%2BDaughter;fontSize=14;rounded=0;sketch=1;curveFitting=1;jiggle=2;" parent="245" connectable="0" vertex="1">
                    <mxGeometry x="1" relative="1" as="geometry">
                        <mxPoint x="10" y="-2" as="offset"/>
                    </mxGeometry>
                </mxCell>
                <mxCell id="251" value="" style="endArrow=none;html=1;rounded=0;hachureGap=4;fontFamily=Architects Daughter;fontSource=https%3A%2F%2Ffonts.googleapis.com%2Fcss%3Ffamily%3DArchitects%2BDaughter;fontSize=14;entryX=0.5;entryY=1;entryDx=0;entryDy=0;exitX=0;exitY=0.5;exitDx=0;exitDy=0;sketch=1;curveFitting=1;jiggle=2;" parent="1" source="97" target="244" edge="1">
                    <mxGeometry relative="1" as="geometry">
                        <mxPoint x="665" y="855" as="sourcePoint"/>
                        <mxPoint x="825" y="855" as="targetPoint"/>
                        <Array as="points">
                            <mxPoint x="605" y="845"/>
                        </Array>
                    </mxGeometry>
                </mxCell>
                <mxCell id="252" value="N" style="resizable=0;html=1;align=right;verticalAlign=bottom;hachureGap=4;fontFamily=Architects Daughter;fontSource=https%3A%2F%2Ffonts.googleapis.com%2Fcss%3Ffamily%3DArchitects%2BDaughter;fontSize=14;rounded=0;sketch=1;curveFitting=1;jiggle=2;" parent="251" connectable="0" vertex="1">
                    <mxGeometry x="1" relative="1" as="geometry">
                        <mxPoint x="15" y="27" as="offset"/>
                    </mxGeometry>
                </mxCell>
                <mxCell id="261" value="recived&lt;br&gt;" style="shape=rhombus;perimeter=rhombusPerimeter;whiteSpace=wrap;html=1;align=center;hachureGap=4;fontFamily=Architects Daughter;fontSource=https%3A%2F%2Ffonts.googleapis.com%2Fcss%3Ffamily%3DArchitects%2BDaughter;fontSize=14;rounded=0;sketch=1;curveFitting=1;jiggle=2;" parent="1" vertex="1">
                    <mxGeometry x="380" y="635" width="120" height="60" as="geometry"/>
                </mxCell>
                <mxCell id="262" value="" style="endArrow=none;html=1;rounded=0;hachureGap=4;fontFamily=Architects Daughter;fontSource=https%3A%2F%2Ffonts.googleapis.com%2Fcss%3Ffamily%3DArchitects%2BDaughter;fontSize=14;exitX=0.5;exitY=0;exitDx=0;exitDy=0;entryX=0.201;entryY=1.015;entryDx=0;entryDy=0;entryPerimeter=0;sketch=1;curveFitting=1;jiggle=2;" parent="1" source="261" target="6" edge="1">
                    <mxGeometry relative="1" as="geometry">
                        <mxPoint x="444" y="635" as="sourcePoint"/>
                        <mxPoint x="584" y="404.9999999999999" as="targetPoint"/>
                        <Array as="points">
                            <mxPoint x="444" y="575"/>
                            <mxPoint x="570" y="575"/>
                        </Array>
                    </mxGeometry>
                </mxCell>
                <mxCell id="263" value="1" style="resizable=0;html=1;align=right;verticalAlign=bottom;hachureGap=4;fontFamily=Architects Daughter;fontSource=https%3A%2F%2Ffonts.googleapis.com%2Fcss%3Ffamily%3DArchitects%2BDaughter;fontSize=14;rounded=0;sketch=1;curveFitting=1;jiggle=2;" parent="262" connectable="0" vertex="1">
                    <mxGeometry x="1" relative="1" as="geometry">
                        <mxPoint x="-160" y="235" as="offset"/>
                    </mxGeometry>
                </mxCell>
                <mxCell id="264" value="" style="endArrow=none;html=1;rounded=0;hachureGap=4;fontFamily=Architects Daughter;fontSource=https%3A%2F%2Ffonts.googleapis.com%2Fcss%3Ffamily%3DArchitects%2BDaughter;fontSize=14;exitX=0.5;exitY=1;exitDx=0;exitDy=0;entryX=0.5;entryY=1;entryDx=0;entryDy=0;sketch=1;curveFitting=1;jiggle=2;" parent="1" source="64" target="261" edge="1">
                    <mxGeometry relative="1" as="geometry">
                        <mxPoint x="590" y="755" as="sourcePoint"/>
                        <mxPoint x="750" y="755" as="targetPoint"/>
                        <Array as="points">
                            <mxPoint x="185" y="735"/>
                            <mxPoint x="440" y="735"/>
                        </Array>
                    </mxGeometry>
                </mxCell>
                <mxCell id="265" value="N" style="resizable=0;html=1;align=right;verticalAlign=bottom;hachureGap=4;fontFamily=Architects Daughter;fontSource=https%3A%2F%2Ffonts.googleapis.com%2Fcss%3Ffamily%3DArchitects%2BDaughter;fontSize=14;rounded=0;sketch=1;curveFitting=1;jiggle=2;" parent="264" connectable="0" vertex="1">
                    <mxGeometry x="1" relative="1" as="geometry">
                        <mxPoint x="-20" y="10" as="offset"/>
                    </mxGeometry>
                </mxCell>
                <mxCell id="272" value="buy" style="shape=rhombus;perimeter=rhombusPerimeter;whiteSpace=wrap;html=1;align=center;hachureGap=4;fontFamily=Architects Daughter;fontSource=https%3A%2F%2Ffonts.googleapis.com%2Fcss%3Ffamily%3DArchitects%2BDaughter;fontSize=14;rounded=0;sketch=1;curveFitting=1;jiggle=2;" parent="1" vertex="1">
                    <mxGeometry x="-60" y="690" width="120" height="60" as="geometry"/>
                </mxCell>
                <mxCell id="278" value="has" style="shape=rhombus;perimeter=rhombusPerimeter;whiteSpace=wrap;html=1;align=center;hachureGap=4;fontFamily=Architects Daughter;fontSource=https%3A%2F%2Ffonts.googleapis.com%2Fcss%3Ffamily%3DArchitects%2BDaughter;fontSize=14;rounded=0;sketch=1;curveFitting=1;jiggle=2;" parent="1" vertex="1">
                    <mxGeometry x="-10" y="1010" width="120" height="60" as="geometry"/>
                </mxCell>
                <mxCell id="279" value="" style="endArrow=none;html=1;rounded=0;hachureGap=4;fontFamily=Architects Daughter;fontSource=https%3A%2F%2Ffonts.googleapis.com%2Fcss%3Ffamily%3DArchitects%2BDaughter;fontSize=14;exitX=0;exitY=0.5;exitDx=0;exitDy=0;sketch=1;curveFitting=1;jiggle=2;" parent="1" source="278" target="41" edge="1">
                    <mxGeometry relative="1" as="geometry">
                        <mxPoint y="1120" as="sourcePoint"/>
                        <mxPoint x="-20" y="540" as="targetPoint"/>
                        <Array as="points">
                            <mxPoint x="-190" y="1040"/>
                            <mxPoint x="-190" y="800"/>
                        </Array>
                    </mxGeometry>
                </mxCell>
                <mxCell id="280" value="1" style="resizable=0;html=1;align=right;verticalAlign=bottom;hachureGap=4;fontFamily=Architects Daughter;fontSource=https%3A%2F%2Ffonts.googleapis.com%2Fcss%3Ffamily%3DArchitects%2BDaughter;fontSize=14;rounded=0;sketch=1;curveFitting=1;jiggle=2;" parent="279" connectable="0" vertex="1">
                    <mxGeometry x="1" relative="1" as="geometry">
                        <mxPoint x="200" y="340" as="offset"/>
                    </mxGeometry>
                </mxCell>
                <mxCell id="282" value="" style="endArrow=none;html=1;rounded=0;hachureGap=4;fontFamily=Architects Daughter;fontSource=https%3A%2F%2Ffonts.googleapis.com%2Fcss%3Ffamily%3DArchitects%2BDaughter;fontSize=14;exitX=0.5;exitY=1;exitDx=0;exitDy=0;entryX=0.5;entryY=0;entryDx=0;entryDy=0;sketch=1;curveFitting=1;jiggle=2;" parent="1" source="87" target="278" edge="1">
                    <mxGeometry relative="1" as="geometry">
                        <mxPoint x="50" y="1080" as="sourcePoint"/>
                        <mxPoint x="360" y="1130" as="targetPoint"/>
                    </mxGeometry>
                </mxCell>
                <mxCell id="283" value="1" style="resizable=0;html=1;align=right;verticalAlign=bottom;hachureGap=4;fontFamily=Architects Daughter;fontSource=https%3A%2F%2Ffonts.googleapis.com%2Fcss%3Ffamily%3DArchitects%2BDaughter;fontSize=14;rounded=0;sketch=1;curveFitting=1;jiggle=2;" parent="282" connectable="0" vertex="1">
                    <mxGeometry x="1" relative="1" as="geometry">
                        <mxPoint x="15" as="offset"/>
                    </mxGeometry>
                </mxCell>
                <mxCell id="286" value="add" style="shape=associativeEntity;whiteSpace=wrap;html=1;align=center;hachureGap=4;fontFamily=Architects Daughter;fontSource=https%3A%2F%2Ffonts.googleapis.com%2Fcss%3Ffamily%3DArchitects%2BDaughter;fontSize=14;rounded=0;sketch=1;curveFitting=1;jiggle=2;" parent="1" vertex="1">
                    <mxGeometry x="1090" y="491" width="140" height="60" as="geometry"/>
                </mxCell>
                <mxCell id="287" value="" style="endArrow=none;html=1;rounded=0;hachureGap=4;fontFamily=Architects Daughter;fontSource=https%3A%2F%2Ffonts.googleapis.com%2Fcss%3Ffamily%3DArchitects%2BDaughter;fontSize=14;entryX=0;entryY=0.5;entryDx=0;entryDy=0;exitX=0.75;exitY=1;exitDx=0;exitDy=0;sketch=1;curveFitting=1;jiggle=2;" parent="1" source="6" target="286" edge="1">
                    <mxGeometry relative="1" as="geometry">
                        <mxPoint x="640" y="500" as="sourcePoint"/>
                        <mxPoint x="1180" y="580" as="targetPoint"/>
                        <Array as="points">
                            <mxPoint x="640" y="520"/>
                        </Array>
                    </mxGeometry>
                </mxCell>
                <mxCell id="288" value="1" style="resizable=0;html=1;align=right;verticalAlign=bottom;hachureGap=4;fontFamily=Architects Daughter;fontSource=https%3A%2F%2Ffonts.googleapis.com%2Fcss%3Ffamily%3DArchitects%2BDaughter;fontSize=14;rounded=0;sketch=1;curveFitting=1;jiggle=2;" parent="287" connectable="0" vertex="1">
                    <mxGeometry x="1" relative="1" as="geometry">
                        <mxPoint x="-10" as="offset"/>
                    </mxGeometry>
                </mxCell>
                <mxCell id="289" value="" style="endArrow=none;html=1;rounded=0;hachureGap=4;fontFamily=Architects Daughter;fontSource=https%3A%2F%2Ffonts.googleapis.com%2Fcss%3Ffamily%3DArchitects%2BDaughter;fontSize=14;exitX=0.5;exitY=1;exitDx=0;exitDy=0;entryX=1;entryY=0.5;entryDx=0;entryDy=0;sketch=1;curveFitting=1;jiggle=2;" parent="1" source="59" target="286" edge="1">
                    <mxGeometry relative="1" as="geometry">
                        <mxPoint x="1270" y="530" as="sourcePoint"/>
                        <mxPoint x="1270" y="521" as="targetPoint"/>
                        <Array as="points">
                            <mxPoint x="1490" y="521"/>
                        </Array>
                    </mxGeometry>
                </mxCell>
                <mxCell id="290" value="N" style="resizable=0;html=1;align=right;verticalAlign=bottom;hachureGap=4;fontFamily=Architects Daughter;fontSource=https%3A%2F%2Ffonts.googleapis.com%2Fcss%3Ffamily%3DArchitects%2BDaughter;fontSize=14;rounded=0;sketch=1;curveFitting=1;jiggle=2;" parent="289" connectable="0" vertex="1">
                    <mxGeometry x="1" relative="1" as="geometry">
                        <mxPoint x="17" as="offset"/>
                    </mxGeometry>
                </mxCell>
                <mxCell id="291" value="has" style="shape=associativeEntity;whiteSpace=wrap;html=1;align=center;hachureGap=4;fontFamily=Architects Daughter;fontSource=https%3A%2F%2Ffonts.googleapis.com%2Fcss%3Ffamily%3DArchitects%2BDaughter;fontSize=14;rounded=0;sketch=1;curveFitting=1;jiggle=2;" parent="1" vertex="1">
                    <mxGeometry x="368.29" y="80" width="140" height="60" as="geometry"/>
                </mxCell>
                <mxCell id="294" value="" style="endArrow=none;html=1;rounded=0;hachureGap=4;fontFamily=Architects Daughter;fontSource=https%3A%2F%2Ffonts.googleapis.com%2Fcss%3Ffamily%3DArchitects%2BDaughter;fontSize=14;exitX=1.008;exitY=0.865;exitDx=0;exitDy=0;entryX=1;entryY=0.5;entryDx=0;entryDy=0;exitPerimeter=0;sketch=1;curveFitting=1;jiggle=2;" parent="1" source="59" target="291" edge="1">
                    <mxGeometry relative="1" as="geometry">
                        <mxPoint x="890" y="580" as="sourcePoint"/>
                        <mxPoint x="1050" y="580" as="targetPoint"/>
                        <Array as="points">
                            <mxPoint x="1720" y="375"/>
                            <mxPoint x="1720" y="280"/>
                            <mxPoint x="1720" y="110"/>
                        </Array>
                    </mxGeometry>
                </mxCell>
                <mxCell id="295" value="N" style="resizable=0;html=1;align=right;verticalAlign=bottom;hachureGap=4;fontFamily=Architects Daughter;fontSource=https%3A%2F%2Ffonts.googleapis.com%2Fcss%3Ffamily%3DArchitects%2BDaughter;fontSize=14;rounded=0;sketch=1;curveFitting=1;jiggle=2;" parent="294" connectable="0" vertex="1">
                    <mxGeometry x="1" relative="1" as="geometry">
                        <mxPoint x="18" as="offset"/>
                    </mxGeometry>
                </mxCell>
                <mxCell id="305" value="approve" style="shape=associativeEntity;whiteSpace=wrap;html=1;align=center;hachureGap=4;fontFamily=Architects Daughter;fontSource=https%3A%2F%2Ffonts.googleapis.com%2Fcss%3Ffamily%3DArchitects%2BDaughter;fontSize=14;rounded=0;sketch=1;curveFitting=1;jiggle=2;" parent="1" vertex="1">
                    <mxGeometry x="1240" y="665" width="140" height="60" as="geometry"/>
                </mxCell>
                <mxCell id="307" value="" style="endArrow=none;html=1;rounded=0;hachureGap=4;fontFamily=Architects Daughter;fontSource=https%3A%2F%2Ffonts.googleapis.com%2Fcss%3Ffamily%3DArchitects%2BDaughter;fontSize=14;entryX=0.5;entryY=0;entryDx=0;entryDy=0;exitX=0.608;exitY=1;exitDx=0;exitDy=0;exitPerimeter=0;sketch=1;curveFitting=1;jiggle=2;" parent="1" source="6" target="305" edge="1">
                    <mxGeometry relative="1" as="geometry">
                        <mxPoint x="1080" y="890" as="sourcePoint"/>
                        <mxPoint x="1240" y="890" as="targetPoint"/>
                        <Array as="points">
                            <mxPoint x="623" y="600"/>
                            <mxPoint x="1310" y="600"/>
                        </Array>
                    </mxGeometry>
                </mxCell>
                <mxCell id="308" value="1" style="resizable=0;html=1;align=right;verticalAlign=bottom;hachureGap=4;fontFamily=Architects Daughter;fontSource=https%3A%2F%2Ffonts.googleapis.com%2Fcss%3Ffamily%3DArchitects%2BDaughter;fontSize=14;rounded=0;sketch=1;curveFitting=1;jiggle=2;" parent="307" connectable="0" vertex="1">
                    <mxGeometry x="1" relative="1" as="geometry">
                        <mxPoint x="-10" as="offset"/>
                    </mxGeometry>
                </mxCell>
                <mxCell id="329" value="1" style="resizable=0;html=1;align=right;verticalAlign=bottom;hachureGap=4;fontFamily=Architects Daughter;fontSource=https%3A%2F%2Ffonts.googleapis.com%2Fcss%3Ffamily%3DArchitects%2BDaughter;fontSize=14;rounded=0;sketch=1;curveFitting=1;jiggle=2;" parent="307" connectable="0" vertex="1">
                    <mxGeometry x="1" relative="1" as="geometry">
                        <mxPoint x="-225" y="410" as="offset"/>
                    </mxGeometry>
                </mxCell>
                <mxCell id="309" value="" style="endArrow=none;html=1;rounded=0;hachureGap=4;fontFamily=Architects Daughter;fontSource=https%3A%2F%2Ffonts.googleapis.com%2Fcss%3Ffamily%3DArchitects%2BDaughter;fontSize=14;entryX=0.572;entryY=1.037;entryDx=0;entryDy=0;entryPerimeter=0;exitX=1.014;exitY=0.639;exitDx=0;exitDy=0;exitPerimeter=0;sketch=1;curveFitting=1;jiggle=2;" parent="1" source="97" target="305" edge="1">
                    <mxGeometry relative="1" as="geometry">
                        <mxPoint x="1180" y="750" as="sourcePoint"/>
                        <mxPoint x="1340" y="750" as="targetPoint"/>
                        <Array as="points">
                            <mxPoint x="1320" y="850"/>
                        </Array>
                    </mxGeometry>
                </mxCell>
                <mxCell id="310" value="N" style="resizable=0;html=1;align=right;verticalAlign=bottom;hachureGap=4;fontFamily=Architects Daughter;fontSource=https%3A%2F%2Ffonts.googleapis.com%2Fcss%3Ffamily%3DArchitects%2BDaughter;fontSize=14;rounded=0;sketch=1;curveFitting=1;jiggle=2;" parent="309" connectable="0" vertex="1">
                    <mxGeometry x="1" relative="1" as="geometry">
                        <mxPoint x="-10" y="23" as="offset"/>
                    </mxGeometry>
                </mxCell>
                <mxCell id="311" value="" style="endArrow=none;html=1;rounded=0;hachureGap=4;fontFamily=Architects Daughter;fontSource=https%3A%2F%2Ffonts.googleapis.com%2Fcss%3Ffamily%3DArchitects%2BDaughter;fontSize=14;exitX=0.127;exitY=1.001;exitDx=0;exitDy=0;exitPerimeter=0;entryX=0.5;entryY=0;entryDx=0;entryDy=0;sketch=1;curveFitting=1;jiggle=2;" parent="1" source="6" target="272" edge="1">
                    <mxGeometry relative="1" as="geometry">
                        <mxPoint x="290" y="860" as="sourcePoint"/>
                        <mxPoint x="-440" y="720" as="targetPoint"/>
                        <Array as="points">
                            <mxPoint x="560" y="540"/>
                            <mxPoint y="540"/>
                        </Array>
                    </mxGeometry>
                </mxCell>
                <mxCell id="312" value="1" style="resizable=0;html=1;align=right;verticalAlign=bottom;hachureGap=4;fontFamily=Architects Daughter;fontSource=https%3A%2F%2Ffonts.googleapis.com%2Fcss%3Ffamily%3DArchitects%2BDaughter;fontSize=14;rounded=0;sketch=1;curveFitting=1;jiggle=2;" parent="311" connectable="0" vertex="1">
                    <mxGeometry x="1" relative="1" as="geometry">
                        <mxPoint x="15" as="offset"/>
                    </mxGeometry>
                </mxCell>
                <mxCell id="315" value="" style="endArrow=none;html=1;rounded=0;hachureGap=4;fontFamily=Architects Daughter;fontSource=https%3A%2F%2Ffonts.googleapis.com%2Fcss%3Ffamily%3DArchitects%2BDaughter;fontSize=14;sketch=1;curveFitting=1;jiggle=2;" parent="1" edge="1">
                    <mxGeometry relative="1" as="geometry">
                        <mxPoint x="-150" y="690" as="sourcePoint"/>
                        <mxPoint x="-60" y="720" as="targetPoint"/>
                        <Array as="points">
                            <mxPoint x="-150" y="720"/>
                        </Array>
                    </mxGeometry>
                </mxCell>
                <mxCell id="316" value="N" style="resizable=0;html=1;align=right;verticalAlign=bottom;hachureGap=4;fontFamily=Architects Daughter;fontSource=https%3A%2F%2Ffonts.googleapis.com%2Fcss%3Ffamily%3DArchitects%2BDaughter;fontSize=14;rounded=0;sketch=1;curveFitting=1;jiggle=2;" parent="315" connectable="0" vertex="1">
                    <mxGeometry x="1" relative="1" as="geometry">
                        <mxPoint y="-5" as="offset"/>
                    </mxGeometry>
                </mxCell>
                <mxCell id="318" value="has" style="shape=rhombus;perimeter=rhombusPerimeter;whiteSpace=wrap;html=1;align=center;hachureGap=4;fontFamily=Architects Daughter;fontSource=https%3A%2F%2Ffonts.googleapis.com%2Fcss%3Ffamily%3DArchitects%2BDaughter;fontSize=14;rounded=0;sketch=1;curveFitting=1;jiggle=2;" parent="1" vertex="1">
                    <mxGeometry x="300" y="830" width="120" height="60" as="geometry"/>
                </mxCell>
                <mxCell id="319" value="" style="endArrow=none;html=1;rounded=0;hachureGap=4;fontFamily=Architects Daughter;fontSource=https%3A%2F%2Ffonts.googleapis.com%2Fcss%3Ffamily%3DArchitects%2BDaughter;fontSize=14;entryX=1;entryY=0.5;entryDx=0;entryDy=0;sketch=1;curveFitting=1;jiggle=2;" parent="1" edge="1">
                    <mxGeometry relative="1" as="geometry">
                        <mxPoint x="360" y="890" as="sourcePoint"/>
                        <mxPoint x="100" y="936.0000000000002" as="targetPoint"/>
                        <Array as="points">
                            <mxPoint x="360" y="936"/>
                        </Array>
                    </mxGeometry>
                </mxCell>
                <mxCell id="320" value="N" style="resizable=0;html=1;align=right;verticalAlign=bottom;hachureGap=4;fontFamily=Architects Daughter;fontSource=https%3A%2F%2Ffonts.googleapis.com%2Fcss%3Ffamily%3DArchitects%2BDaughter;fontSize=14;rounded=0;sketch=1;curveFitting=1;jiggle=2;" parent="319" connectable="0" vertex="1">
                    <mxGeometry x="1" relative="1" as="geometry">
                        <mxPoint x="240" y="-30" as="offset"/>
                    </mxGeometry>
                </mxCell>
                <mxCell id="321" value="" style="endArrow=none;html=1;rounded=0;hachureGap=4;fontFamily=Architects Daughter;fontSource=https%3A%2F%2Ffonts.googleapis.com%2Fcss%3Ffamily%3DArchitects%2BDaughter;fontSize=14;entryX=0.5;entryY=0;entryDx=0;entryDy=0;exitX=0.25;exitY=1;exitDx=0;exitDy=0;sketch=1;curveFitting=1;jiggle=2;" parent="1" source="6" target="318" edge="1">
                    <mxGeometry relative="1" as="geometry">
                        <mxPoint x="340" y="770" as="sourcePoint"/>
                        <mxPoint x="500" y="770" as="targetPoint"/>
                        <Array as="points">
                            <mxPoint x="580" y="620"/>
                            <mxPoint x="510" y="620"/>
                            <mxPoint x="510" y="760"/>
                            <mxPoint x="360" y="760"/>
                        </Array>
                    </mxGeometry>
                </mxCell>
                <mxCell id="322" value="1" style="resizable=0;html=1;align=right;verticalAlign=bottom;hachureGap=4;fontFamily=Architects Daughter;fontSource=https%3A%2F%2Ffonts.googleapis.com%2Fcss%3Ffamily%3DArchitects%2BDaughter;fontSize=14;rounded=0;sketch=1;curveFitting=1;jiggle=2;" parent="321" connectable="0" vertex="1">
                    <mxGeometry x="1" relative="1" as="geometry">
                        <mxPoint x="-10" as="offset"/>
                    </mxGeometry>
                </mxCell>
                <mxCell id="336" style="edgeStyle=none;hachureGap=4;html=1;exitX=0.5;exitY=0;exitDx=0;exitDy=0;fontFamily=Architects Daughter;fontSource=https%3A%2F%2Ffonts.googleapis.com%2Fcss%3Ffamily%3DArchitects%2BDaughter;fontSize=14;endArrow=none;endFill=0;rounded=0;sketch=1;curveFitting=1;jiggle=2;" parent="1" source="333" target="335" edge="1">
                    <mxGeometry relative="1" as="geometry"/>
                </mxCell>
                <mxCell id="344" style="edgeStyle=none;hachureGap=4;html=1;entryX=1;entryY=1;entryDx=0;entryDy=0;fontFamily=Architects Daughter;fontSource=https%3A%2F%2Ffonts.googleapis.com%2Fcss%3Ffamily%3DArchitects%2BDaughter;fontSize=14;endArrow=none;endFill=0;rounded=0;sketch=1;curveFitting=1;jiggle=2;" parent="1" source="333" target="338" edge="1">
                    <mxGeometry relative="1" as="geometry"/>
                </mxCell>
                <mxCell id="345" style="edgeStyle=none;hachureGap=4;html=1;entryX=0.626;entryY=0.999;entryDx=0;entryDy=0;fontFamily=Architects Daughter;fontSource=https%3A%2F%2Ffonts.googleapis.com%2Fcss%3Ffamily%3DArchitects%2BDaughter;fontSize=14;endArrow=none;endFill=0;entryPerimeter=0;rounded=0;sketch=1;curveFitting=1;jiggle=2;" parent="1" source="333" target="339" edge="1">
                    <mxGeometry relative="1" as="geometry"/>
                </mxCell>
                <mxCell id="347" style="edgeStyle=none;hachureGap=4;html=1;entryX=1;entryY=0.5;entryDx=0;entryDy=0;fontFamily=Architects Daughter;fontSource=https%3A%2F%2Ffonts.googleapis.com%2Fcss%3Ffamily%3DArchitects%2BDaughter;fontSize=14;endArrow=none;endFill=0;rounded=0;sketch=1;curveFitting=1;jiggle=2;" parent="1" source="333" target="341" edge="1">
                    <mxGeometry relative="1" as="geometry"/>
                </mxCell>
                <mxCell id="348" style="edgeStyle=none;hachureGap=4;html=1;entryX=0.253;entryY=1.013;entryDx=0;entryDy=0;entryPerimeter=0;fontFamily=Architects Daughter;fontSource=https%3A%2F%2Ffonts.googleapis.com%2Fcss%3Ffamily%3DArchitects%2BDaughter;fontSize=14;endArrow=none;endFill=0;rounded=0;sketch=1;curveFitting=1;jiggle=2;" parent="1" source="333" target="337" edge="1">
                    <mxGeometry relative="1" as="geometry"/>
                </mxCell>
                <mxCell id="349" style="edgeStyle=none;hachureGap=4;html=1;entryX=0;entryY=0.5;entryDx=0;entryDy=0;fontFamily=Architects Daughter;fontSource=https%3A%2F%2Ffonts.googleapis.com%2Fcss%3Ffamily%3DArchitects%2BDaughter;fontSize=14;endArrow=none;endFill=0;rounded=0;sketch=1;curveFitting=1;jiggle=2;" parent="1" source="333" target="340" edge="1">
                    <mxGeometry relative="1" as="geometry"/>
                </mxCell>
                <mxCell id="350" style="edgeStyle=none;hachureGap=4;html=1;entryX=0;entryY=0.5;entryDx=0;entryDy=0;fontFamily=Architects Daughter;fontSource=https%3A%2F%2Ffonts.googleapis.com%2Fcss%3Ffamily%3DArchitects%2BDaughter;fontSize=14;endArrow=none;endFill=0;rounded=0;sketch=1;curveFitting=1;jiggle=2;" parent="1" source="333" target="342" edge="1">
                    <mxGeometry relative="1" as="geometry"/>
                </mxCell>
                <mxCell id="333" value="Event" style="whiteSpace=wrap;html=1;align=center;hachureGap=4;fontFamily=Architects Daughter;fontSource=https%3A%2F%2Ffonts.googleapis.com%2Fcss%3Ffamily%3DArchitects%2BDaughter;fontSize=20;rounded=0;sketch=1;curveFitting=1;jiggle=2;" parent="1" vertex="1">
                    <mxGeometry x="41.01999999999998" y="297.4999999999999" width="120" height="50" as="geometry"/>
                </mxCell>
                <mxCell id="335" value="id" style="ellipse;whiteSpace=wrap;html=1;align=center;fontStyle=4;hachureGap=4;fontFamily=Architects Daughter;fontSource=https%3A%2F%2Ffonts.googleapis.com%2Fcss%3Ffamily%3DArchitects%2BDaughter;fontSize=20;rounded=0;sketch=1;curveFitting=1;jiggle=2;" parent="1" vertex="1">
                    <mxGeometry x="89.99999999999997" y="152.5" width="100" height="40" as="geometry"/>
                </mxCell>
                <mxCell id="337" value="title" style="ellipse;whiteSpace=wrap;html=1;align=center;hachureGap=4;fontFamily=Architects Daughter;fontSource=https%3A%2F%2Ffonts.googleapis.com%2Fcss%3Ffamily%3DArchitects%2BDaughter;fontSize=20;rounded=0;sketch=1;curveFitting=1;jiggle=2;" parent="1" vertex="1">
                    <mxGeometry x="161.01999999999998" y="192.5" width="100" height="40" as="geometry"/>
                </mxCell>
                <mxCell id="338" value="&lt;meta charset=&quot;utf-8&quot;&gt;description" style="ellipse;whiteSpace=wrap;html=1;align=center;hachureGap=4;fontFamily=Architects Daughter;fontSource=https%3A%2F%2Ffonts.googleapis.com%2Fcss%3Ffamily%3DArchitects%2BDaughter;fontSize=20;rounded=0;sketch=1;curveFitting=1;jiggle=2;" parent="1" vertex="1">
                    <mxGeometry x="-20.000000000000018" y="160" width="100" height="40" as="geometry"/>
                </mxCell>
                <mxCell id="339" value="&lt;meta charset=&quot;utf-8&quot;&gt;start_time" style="ellipse;whiteSpace=wrap;html=1;align=center;hachureGap=4;fontFamily=Architects Daughter;fontSource=https%3A%2F%2Ffonts.googleapis.com%2Fcss%3Ffamily%3DArchitects%2BDaughter;fontSize=20;rounded=0;sketch=1;curveFitting=1;jiggle=2;" parent="1" vertex="1">
                    <mxGeometry x="-40.000000000000014" y="205" width="100" height="40" as="geometry"/>
                </mxCell>
                <mxCell id="340" value="&lt;meta charset=&quot;utf-8&quot;&gt;end_time" style="ellipse;whiteSpace=wrap;html=1;align=center;hachureGap=4;fontFamily=Architects Daughter;fontSource=https%3A%2F%2Ffonts.googleapis.com%2Fcss%3Ffamily%3DArchitects%2BDaughter;fontSize=20;rounded=0;sketch=1;curveFitting=1;jiggle=2;" parent="1" vertex="1">
                    <mxGeometry x="190.01999999999998" y="242.5" width="100" height="40" as="geometry"/>
                </mxCell>
                <mxCell id="341" value="&lt;meta charset=&quot;utf-8&quot;&gt;created_at" style="ellipse;whiteSpace=wrap;html=1;align=center;hachureGap=4;fontFamily=Architects Daughter;fontSource=https%3A%2F%2Ffonts.googleapis.com%2Fcss%3Ffamily%3DArchitects%2BDaughter;fontSize=20;rounded=0;sketch=1;curveFitting=1;jiggle=2;" parent="1" vertex="1">
                    <mxGeometry x="-80.00000000000001" y="255" width="100" height="40" as="geometry"/>
                </mxCell>
                <mxCell id="342" value="&lt;meta charset=&quot;utf-8&quot;&gt;updated_at" style="ellipse;whiteSpace=wrap;html=1;align=center;hachureGap=4;fontFamily=Architects Daughter;fontSource=https%3A%2F%2Ffonts.googleapis.com%2Fcss%3Ffamily%3DArchitects%2BDaughter;fontSize=20;rounded=0;sketch=1;curveFitting=1;jiggle=2;" parent="1" vertex="1">
                    <mxGeometry x="190.01999999999998" y="292.5" width="100" height="40" as="geometry"/>
                </mxCell>
                <mxCell id="352" value="1" style="resizable=0;html=1;align=right;verticalAlign=bottom;hachureGap=4;fontFamily=Architects Daughter;fontSource=https%3A%2F%2Ffonts.googleapis.com%2Fcss%3Ffamily%3DArchitects%2BDaughter;fontSize=14;rounded=0;sketch=1;curveFitting=1;jiggle=2;" parent="1" connectable="0" vertex="1">
                    <mxGeometry x="1009.9988888930043" y="369.9999975308733" as="geometry"/>
                </mxCell>
                <mxCell id="366" value="place_name" style="ellipse;whiteSpace=wrap;html=1;align=center;hachureGap=4;fontFamily=Architects Daughter;fontSource=https%3A%2F%2Ffonts.googleapis.com%2Fcss%3Ffamily%3DArchitects%2BDaughter;fontSize=18;rounded=0;sketch=1;curveFitting=1;jiggle=2;" parent="1" vertex="1">
                    <mxGeometry x="750" y="685" width="100" height="40" as="geometry"/>
                </mxCell>
                <mxCell id="368" value="location" style="ellipse;whiteSpace=wrap;html=1;align=center;hachureGap=4;fontFamily=Architects Daughter;fontSource=https%3A%2F%2Ffonts.googleapis.com%2Fcss%3Ffamily%3DArchitects%2BDaughter;fontSize=18;rounded=0;sketch=1;curveFitting=1;jiggle=2;" parent="1" vertex="1">
                    <mxGeometry x="1090" y="780" width="100" height="40" as="geometry"/>
                </mxCell>
                <mxCell id="371" value="&lt;span style=&quot;color: rgb(0, 0, 0); font-family: &amp;quot;Architects Daughter&amp;quot;; font-size: 20px; font-style: normal; font-variant-ligatures: normal; font-variant-caps: normal; font-weight: 400; letter-spacing: normal; orphans: 2; text-align: center; text-indent: 0px; text-transform: none; widows: 2; word-spacing: 0px; -webkit-text-stroke-width: 0px; background-color: rgb(251, 251, 251); text-decoration-thickness: initial; text-decoration-style: initial; text-decoration-color: initial; float: none; display: inline !important;&quot;&gt;capacity&lt;/span&gt;" style="ellipse;whiteSpace=wrap;html=1;align=center;hachureGap=4;fontFamily=Architects Daughter;fontSource=https%3A%2F%2Ffonts.googleapis.com%2Fcss%3Ffamily%3DArchitects%2BDaughter;fontSize=18;rounded=0;sketch=1;curveFitting=1;jiggle=2;" parent="1" vertex="1">
                    <mxGeometry x="730" y="740" width="100" height="50" as="geometry"/>
                </mxCell>
                <mxCell id="373" style="edgeStyle=none;hachureGap=4;html=1;exitX=0;exitY=0;exitDx=0;exitDy=0;entryX=0.314;entryY=0.034;entryDx=0;entryDy=0;entryPerimeter=0;fontFamily=Architects Daughter;fontSource=https%3A%2F%2Ffonts.googleapis.com%2Fcss%3Ffamily%3DArchitects%2BDaughter;fontSize=14;endArrow=none;endFill=0;rounded=0;sketch=1;curveFitting=1;jiggle=2;" parent="1" source="371" target="371" edge="1">
                    <mxGeometry relative="1" as="geometry"/>
                </mxCell>
                <mxCell id="386" value="" style="edgeStyle=none;hachureGap=4;html=1;fontFamily=Architects Daughter;fontSource=https%3A%2F%2Ffonts.googleapis.com%2Fcss%3Ffamily%3DArchitects%2BDaughter;fontSize=16;endArrow=none;endFill=0;rounded=0;sketch=1;curveFitting=1;jiggle=2;" parent="1" target="44" edge="1">
                    <mxGeometry relative="1" as="geometry"/>
                </mxCell>
                <mxCell id="387" value="contains" style="shape=rhombus;perimeter=rhombusPerimeter;whiteSpace=wrap;html=1;align=center;hachureGap=4;fontFamily=Architects Daughter;fontSource=https%3A%2F%2Ffonts.googleapis.com%2Fcss%3Ffamily%3DArchitects%2BDaughter;fontSize=14;rounded=0;sketch=1;curveFitting=1;jiggle=2;" parent="1" vertex="1">
                    <mxGeometry x="-550" y="575" width="120" height="60" as="geometry"/>
                </mxCell>
                <mxCell id="388" value="" style="endArrow=none;html=1;rounded=0;hachureGap=4;fontFamily=Architects Daughter;fontSource=https%3A%2F%2Ffonts.googleapis.com%2Fcss%3Ffamily%3DArchitects%2BDaughter;fontSize=16;entryX=0.5;entryY=0;entryDx=0;entryDy=0;sketch=1;curveFitting=1;jiggle=2;" parent="1" target="387" edge="1">
                    <mxGeometry relative="1" as="geometry">
                        <mxPoint x="40" y="330" as="sourcePoint"/>
                        <mxPoint x="250" y="590" as="targetPoint"/>
                        <Array as="points">
                            <mxPoint x="-120" y="330"/>
                            <mxPoint x="-120" y="80"/>
                            <mxPoint x="-400" y="80"/>
                            <mxPoint x="-720" y="80"/>
                            <mxPoint x="-720" y="500"/>
                            <mxPoint x="-490" y="500"/>
                        </Array>
                    </mxGeometry>
                </mxCell>
                <mxCell id="389" value="1" style="resizable=0;html=1;align=right;verticalAlign=bottom;hachureGap=4;fontFamily=Architects Daughter;fontSource=https%3A%2F%2Ffonts.googleapis.com%2Fcss%3Ffamily%3DArchitects%2BDaughter;fontSize=20;rounded=0;sketch=1;curveFitting=1;jiggle=2;" parent="388" connectable="0" vertex="1">
                    <mxGeometry x="1" relative="1" as="geometry">
                        <mxPoint x="-10" as="offset"/>
                    </mxGeometry>
                </mxCell>
                <mxCell id="390" value="" style="endArrow=none;html=1;rounded=0;hachureGap=4;fontFamily=Architects Daughter;fontSource=https%3A%2F%2Ffonts.googleapis.com%2Fcss%3Ffamily%3DArchitects%2BDaughter;fontSize=16;entryX=0.5;entryY=1;entryDx=0;entryDy=0;exitX=0.342;exitY=1.007;exitDx=0;exitDy=0;exitPerimeter=0;sketch=1;curveFitting=1;jiggle=2;" parent="1" source="41" target="387" edge="1">
                    <mxGeometry relative="1" as="geometry">
                        <mxPoint x="-500" y="744.41" as="sourcePoint"/>
                        <mxPoint x="-340" y="744.41" as="targetPoint"/>
                        <Array as="points">
                            <mxPoint x="-207" y="740"/>
                            <mxPoint x="-490" y="740"/>
                        </Array>
                    </mxGeometry>
                </mxCell>
                <mxCell id="391" value="N" style="resizable=0;html=1;align=right;verticalAlign=bottom;hachureGap=4;fontFamily=Architects Daughter;fontSource=https%3A%2F%2Ffonts.googleapis.com%2Fcss%3Ffamily%3DArchitects%2BDaughter;fontSize=20;rounded=0;sketch=1;curveFitting=1;jiggle=2;" parent="390" connectable="0" vertex="1">
                    <mxGeometry x="1" relative="1" as="geometry">
                        <mxPoint x="-10" y="25" as="offset"/>
                    </mxGeometry>
                </mxCell>
                <mxCell id="396" style="edgeStyle=none;hachureGap=4;html=1;entryX=0.5;entryY=1;entryDx=0;entryDy=0;fontFamily=Architects Daughter;fontSource=https%3A%2F%2Ffonts.googleapis.com%2Fcss%3Ffamily%3DArchitects%2BDaughter;fontSize=16;endArrow=none;endFill=0;rounded=0;sketch=1;curveFitting=1;jiggle=2;" parent="1" source="392" target="395" edge="1">
                    <mxGeometry relative="1" as="geometry"/>
                </mxCell>
                <mxCell id="397" style="edgeStyle=none;hachureGap=4;html=1;exitX=0.5;exitY=0;exitDx=0;exitDy=0;entryX=0.5;entryY=1;entryDx=0;entryDy=0;fontFamily=Architects Daughter;fontSource=https%3A%2F%2Ffonts.googleapis.com%2Fcss%3Ffamily%3DArchitects%2BDaughter;fontSize=16;endArrow=none;endFill=0;rounded=0;sketch=1;curveFitting=1;jiggle=2;" parent="1" source="392" target="393" edge="1">
                    <mxGeometry relative="1" as="geometry"/>
                </mxCell>
                <mxCell id="398" style="edgeStyle=none;hachureGap=4;html=1;entryX=0.5;entryY=1;entryDx=0;entryDy=0;fontFamily=Architects Daughter;fontSource=https%3A%2F%2Ffonts.googleapis.com%2Fcss%3Ffamily%3DArchitects%2BDaughter;fontSize=16;endArrow=none;endFill=0;rounded=0;sketch=1;curveFitting=1;jiggle=2;" parent="1" source="392" target="394" edge="1">
                    <mxGeometry relative="1" as="geometry"/>
                </mxCell>
                <mxCell id="392" value="&lt;span style=&quot;font-size: 12px;&quot;&gt;paymentMethod&lt;/span&gt;" style="whiteSpace=wrap;html=1;align=center;hachureGap=4;fontFamily=Architects Daughter;fontSource=https%3A%2F%2Ffonts.googleapis.com%2Fcss%3Ffamily%3DArchitects%2BDaughter;fontSize=18;rounded=0;sketch=1;curveFitting=1;jiggle=2;" parent="1" vertex="1">
                    <mxGeometry x="620" y="955" width="100" height="40" as="geometry"/>
                </mxCell>
                <mxCell id="393" value="id" style="ellipse;whiteSpace=wrap;html=1;align=center;fontStyle=4;hachureGap=4;fontFamily=Architects Daughter;fontSource=https%3A%2F%2Ffonts.googleapis.com%2Fcss%3Ffamily%3DArchitects%2BDaughter;fontSize=18;rounded=0;sketch=1;curveFitting=1;jiggle=2;" parent="1" vertex="1">
                    <mxGeometry x="620" y="865" width="100" height="40" as="geometry"/>
                </mxCell>
                <mxCell id="394" value="name" style="ellipse;whiteSpace=wrap;html=1;align=center;hachureGap=4;fontFamily=Architects Daughter;fontSource=https%3A%2F%2Ffonts.googleapis.com%2Fcss%3Ffamily%3DArchitects%2BDaughter;fontSize=18;rounded=0;sketch=1;curveFitting=1;jiggle=2;" parent="1" vertex="1">
                    <mxGeometry x="520" y="895" width="100" height="40" as="geometry"/>
                </mxCell>
                <mxCell id="395" value="details" style="ellipse;whiteSpace=wrap;html=1;align=center;hachureGap=4;fontFamily=Architects Daughter;fontSource=https%3A%2F%2Ffonts.googleapis.com%2Fcss%3Ffamily%3DArchitects%2BDaughter;fontSize=18;rounded=0;sketch=1;curveFitting=1;jiggle=2;" parent="1" vertex="1">
                    <mxGeometry x="720" y="895" width="100" height="40" as="geometry"/>
                </mxCell>
                <mxCell id="399" value="has" style="shape=rhombus;perimeter=rhombusPerimeter;whiteSpace=wrap;html=1;align=center;hachureGap=4;fontFamily=Architects Daughter;fontSource=https%3A%2F%2Ffonts.googleapis.com%2Fcss%3Ffamily%3DArchitects%2BDaughter;fontSize=14;rounded=0;sketch=1;curveFitting=1;jiggle=2;" parent="1" vertex="1">
                    <mxGeometry x="300" y="1010" width="120" height="60" as="geometry"/>
                </mxCell>
                <mxCell id="400" value="" style="endArrow=none;html=1;rounded=0;hachureGap=4;fontFamily=Architects Daughter;fontSource=https%3A%2F%2Ffonts.googleapis.com%2Fcss%3Ffamily%3DArchitects%2BDaughter;fontSize=16;entryX=0;entryY=0.5;entryDx=0;entryDy=0;exitX=1;exitY=0.75;exitDx=0;exitDy=0;sketch=1;curveFitting=1;jiggle=2;" parent="1" source="87" target="399" edge="1">
                    <mxGeometry relative="1" as="geometry">
                        <mxPoint x="160" y="1040" as="sourcePoint"/>
                        <mxPoint x="440" y="1100" as="targetPoint"/>
                        <Array as="points">
                            <mxPoint x="160" y="950"/>
                            <mxPoint x="160" y="1040"/>
                        </Array>
                    </mxGeometry>
                </mxCell>
                <mxCell id="401" value="1" style="resizable=0;html=1;align=right;verticalAlign=bottom;hachureGap=4;fontFamily=Architects Daughter;fontSource=https%3A%2F%2Ffonts.googleapis.com%2Fcss%3Ffamily%3DArchitects%2BDaughter;fontSize=20;rounded=0;sketch=1;curveFitting=1;jiggle=2;" parent="400" connectable="0" vertex="1">
                    <mxGeometry x="1" relative="1" as="geometry">
                        <mxPoint y="-4" as="offset"/>
                    </mxGeometry>
                </mxCell>
                <mxCell id="402" value="" style="endArrow=none;html=1;rounded=0;hachureGap=4;fontFamily=Architects Daughter;fontSource=https%3A%2F%2Ffonts.googleapis.com%2Fcss%3Ffamily%3DArchitects%2BDaughter;fontSize=16;entryX=1;entryY=0.5;entryDx=0;entryDy=0;exitX=0.592;exitY=1.022;exitDx=0;exitDy=0;exitPerimeter=0;sketch=1;curveFitting=1;jiggle=2;" parent="1" source="392" target="399" edge="1">
                    <mxGeometry relative="1" as="geometry">
                        <mxPoint x="680" y="1040" as="sourcePoint"/>
                        <mxPoint x="440" y="1100" as="targetPoint"/>
                        <Array as="points">
                            <mxPoint x="679" y="1040"/>
                        </Array>
                    </mxGeometry>
                </mxCell>
                <mxCell id="403" value="N" style="resizable=0;html=1;align=right;verticalAlign=bottom;hachureGap=4;fontFamily=Architects Daughter;fontSource=https%3A%2F%2Ffonts.googleapis.com%2Fcss%3Ffamily%3DArchitects%2BDaughter;fontSize=20;rounded=0;sketch=1;curveFitting=1;jiggle=2;" parent="402" connectable="0" vertex="1">
                    <mxGeometry x="1" relative="1" as="geometry">
                        <mxPoint y="-2" as="offset"/>
                    </mxGeometry>
                </mxCell>
                <mxCell id="404" value="" style="endArrow=none;html=1;rounded=0;sketch=1;hachureGap=4;jiggle=2;curveFitting=1;fontFamily=Architects Daughter;fontSource=https%3A%2F%2Ffonts.googleapis.com%2Fcss%3Ffamily%3DArchitects%2BDaughter;fontSize=16;entryX=0;entryY=0.5;entryDx=0;entryDy=0;exitX=1;exitY=0.75;exitDx=0;exitDy=0;" parent="1" source="19" target="291" edge="1">
                    <mxGeometry relative="1" as="geometry">
                        <mxPoint x="30" y="540" as="sourcePoint"/>
                        <mxPoint x="190" y="540" as="targetPoint"/>
                        <Array as="points">
                            <mxPoint x="320" y="380"/>
                            <mxPoint x="320" y="110"/>
                        </Array>
                    </mxGeometry>
                </mxCell>
                <mxCell id="405" value="1" style="resizable=0;html=1;align=right;verticalAlign=bottom;sketch=1;hachureGap=4;jiggle=2;curveFitting=1;fontFamily=Architects Daughter;fontSource=https%3A%2F%2Ffonts.googleapis.com%2Fcss%3Ffamily%3DArchitects%2BDaughter;fontSize=20;" parent="404" connectable="0" vertex="1">
                    <mxGeometry x="1" relative="1" as="geometry">
                        <mxPoint x="-9" as="offset"/>
                    </mxGeometry>
                </mxCell>
            </root>
        </mxGraphModel>
    </diagram>
</mxfile>
